<svg xmlns="http://www.w3.org/2000/svg" width="71.999" height="72" viewBox="0 0 71.999 72">
    <defs>
        <style>
            .cls-1{fill:#475993}
        </style>
    </defs>
    <path id="facebook" d="M62.3 0H9.7A9.7 9.7 0 0 0 0 9.7v52.6A9.7 9.7 0 0 0 9.7 72h25.94l.044-25.729H29a1.577 1.577 0 0 1-1.573-1.571l-.032-8.293a1.577 1.577 0 0 1 1.577-1.583h6.672V26.81c0-9.3 5.68-14.363 13.976-14.363h6.807A1.577 1.577 0 0 1 58 14.023v6.993a1.577 1.577 0 0 1-1.576 1.577h-4.178c-4.512 0-5.385 2.144-5.385 5.29v6.938h9.914a1.577 1.577 0 0 1 1.566 1.763l-.983 8.293a1.577 1.577 0 0 1-1.558 1.394h-8.891L46.865 72H62.3a9.7 9.7 0 0 0 9.7-9.7V9.7A9.7 9.7 0 0 0 62.3 0z" class="cls-1" transform="translate(-.001)"/>
</svg>
