<svg xmlns="http://www.w3.org/2000/svg" width="72" height="72" viewBox="0 0 72 72">
    <defs>
        <style>
            .cls-1{fill:#0077b7}
        </style>
    </defs>
    <path id="linkedin" d="M65.487 0H6.513A6.513 6.513 0 0 0 0 6.513v58.974A6.513 6.513 0 0 0 6.513 72h58.974A6.513 6.513 0 0 0 72 65.487V6.513A6.513 6.513 0 0 0 65.487 0zM22.28 62.17a1.9 1.9 0 0 1-1.9 1.9h-8.064a1.9 1.9 0 0 1-1.9-1.9V28.348a1.9 1.9 0 0 1 1.9-1.9h8.068a1.9 1.9 0 0 1 1.9 1.9zm-5.929-38.9a7.665 7.665 0 1 1 7.664-7.67 7.665 7.665 0 0 1-7.665 7.665zm48.093 39.052a1.743 1.743 0 0 1-1.744 1.743h-8.657a1.743 1.743 0 0 1-1.743-1.743V46.458c0-2.367.694-10.37-6.185-10.37-5.336 0-6.418 5.478-6.635 7.937v18.3a1.743 1.743 0 0 1-1.743 1.743h-8.372a1.743 1.743 0 0 1-1.743-1.743V28.2a1.743 1.743 0 0 1 1.743-1.743h8.373a1.743 1.743 0 0 1 1.743 1.743v2.951c1.978-2.969 4.919-5.261 11.179-5.261 13.863 0 13.784 12.952 13.784 20.068v16.364z" class="cls-1"/>
</svg>
