<svg viewBox="0 0 24 24" xmlns="http://www.w3.org/2000/svg" fill="rgb(101, 119, 134)"><g><path d="M18.466 14.928c-1.118 0-2.106.525-2.765 1.328l-6.587-3.358c.066-.27.11-.55.11-.842 0-.287-.042-.562-.106-.83l6.575-3.32c.658.81 1.65 1.34 2.774 1.34 1.978 0 3.586-1.606 3.586-3.58s-1.608-3.58-3.586-3.58-3.586 1.606-3.586 3.58c0 .314.054.614.13.904L8.463 9.876c-.656-.846-1.672-1.4-2.824-1.4-1.98 0-3.588 1.606-3.588 3.58s1.61 3.58 3.587 3.58c1.146 0 2.158-.55 2.815-1.39l6.56 3.343c-.08.294-.135.598-.135.918 0 1.974 1.608 3.58 3.586 3.58s3.586-1.606 3.586-3.58-1.61-3.58-3.586-3.58zm0-11.34c1.15 0 2.086.932 2.086 2.078s-.936 2.08-2.086 2.08-2.086-.934-2.086-2.08.935-2.08 2.086-2.08zM5.64 14.134c-1.15 0-2.088-.933-2.088-2.08s.937-2.08 2.087-2.08 2.085.935 2.085 2.08-.936 2.08-2.086 2.08zm12.826 6.452c-1.15 0-2.086-.933-2.086-2.08s.936-2.08 2.086-2.08 2.086.935 2.086 2.08-.936 2.08-2.086 2.08z"></path></g></svg>