<svg xmlns="http://www.w3.org/2000/svg" width="72" height="72" viewBox="0 0 72 72">
    <defs>
        <style>
            .cls-1{fill:#9f1121}
        </style>
    </defs>
    <path id="pinterest" d="M71.985 37.055a36 36 0 1 0-51.708 31.337 1.016 1.016 0 0 0 1.459-.953 27.064 27.064 0 0 1 .451-6.783c.456-1.96 2.246-9.539 3.423-14.518a17.8 17.8 0 0 0 .181-7.389 15.118 15.118 0 0 1-.261-2.8c0-5.321 3.084-9.293 6.924-9.293 3.265 0 4.842 2.451 4.842 5.39 0 3.283-2.09 8.192-3.169 12.741a5.556 5.556 0 0 0 5.667 6.915c6.8 0 12.029-7.171 12.029-17.523 0-9.162-6.583-15.568-15.984-15.568-10.888 0-17.279 8.167-17.279 16.606a14.886 14.886 0 0 0 2.848 8.733 1.144 1.144 0 0 1 .266 1.1c-.29 1.209-.936 3.808-1.063 4.34-.167.7-.555.849-1.28.512-4.78-2.225-7.767-9.212-7.767-14.824 0-12.071 8.77-23.156 25.284-23.156 13.274 0 23.591 9.459 23.591 22.1 0 13.188-8.315 23.8-19.857 23.8a11.263 11.263 0 0 1-7.665-2.936.956.956 0 0 0-1.6.432c-.6 2.293-1.574 6-1.888 7.207a33.261 33.261 0 0 1-2.945 6.9 1.017 1.017 0 0 0 .648 1.471A36.061 36.061 0 0 0 36.34 72c18.891-.177 35.105-16.061 35.645-34.945z" class="cls-1"/>
</svg>
