<svg xmlns="http://www.w3.org/2000/svg" width="52.945" height="43.318" viewBox="0 0 52.945 43.318">
    <defs>
        <style>
            .cls-1{fill:#55ba6a}.cls-2{fill:#cef}.cls-3{fill:#57555c}.cls-4{fill:#fff}
        </style>
    </defs>
    <g id="camera_1_" data-name="camera(1)" transform="translate(-.001)">
        <path id="Rectangle_13" d="M0 0h50.462v16.846H0z" class="cls-1" data-name="Rectangle 13" transform="translate(1.203 17.333)"/>
        <g id="Group_363" data-name="Group 363" transform="translate(1.036 1.036)">
            <path id="Path_306" d="M10 376v6.213a2.069 2.069 0 0 0 2.068 2.071h46.738a2.069 2.069 0 0 0 2.068-2.071V376z" class="cls-2" data-name="Path 306" transform="translate(-10 -343.037)"/>
            <path id="Path_307" d="M58.806 64.284H46.811l-3.564-7.139A2.068 2.068 0 0 0 41.4 56H29.477a2.068 2.068 0 0 0-1.85 1.145l-3.564 7.139H20.34v-2.071a2.069 2.069 0 0 0-2.068-2.071H16.2a2.069 2.069 0 0 0-2.068 2.071v2.071h-2.064A2.069 2.069 0 0 0 10 66.356v6.213h50.874v-6.213a2.069 2.069 0 0 0-2.068-2.072z" class="cls-2" data-name="Path 307" transform="translate(-10 -56)"/>
        </g>
        <path id="Path_308" d="M160.853 188.427A12.427 12.427 0 1 1 148.427 176a12.429 12.429 0 0 1 12.426 12.427z" class="cls-3" data-name="Path 308" transform="translate(-121.954 -162.713)"/>
        <path id="Path_309" d="M184.284 216a8.284 8.284 0 1 1-8.284 8.284 8.294 8.294 0 0 1 8.284-8.284z" class="cls-4" data-name="Path 309" transform="translate(-157.812 -198.51)"/>
        <path id="Path_310" d="M393.036 168.071a1.036 1.036 0 1 0-1.036-1.035 1.036 1.036 0 0 0 1.036 1.035z" data-name="Path 310" transform="translate(-351.466 -153.626)"/>
        <path id="Path_311" d="M49.843 54.251H38.486l-3.279-6.54A3.087 3.087 0 0 0 32.433 46H20.512a3.086 3.086 0 0 0-2.775 1.711l-3.279 6.54h-2.05V53.22a3.1 3.1 0 0 0-3.1-3.094H7.239a3.1 3.1 0 0 0-3.1 3.094v1.031H3.1A3.1 3.1 0 0 0 0 57.345v28.879a3.1 3.1 0 0 0 3.1 3.094h46.74a3.1 3.1 0 0 0 3.1-3.094V57.345a3.1 3.1 0 0 0-3.097-3.094zM2.068 64.555h13.076a13.4 13.4 0 0 0 0 14.45H2.068zm13.032 7.23A11.375 11.375 0 1 1 26.472 83.13 11.366 11.366 0 0 1 15.1 71.785zm24.818 0a13.353 13.353 0 0 0-2.115-7.22h13.074V79H37.8a13.353 13.353 0 0 0 2.115-7.215zM19.587 48.633a1.029 1.029 0 0 1 .925-.571h11.921a1.029 1.029 0 0 1 .925.571l2.816 5.618h-19.4zM6.2 53.22a1.034 1.034 0 0 1 1.034-1.031h2.073a1.034 1.034 0 0 1 1.034 1.031v1.031H6.2zm-3.1 3.094h46.74a1.034 1.034 0 0 1 1.034 1.031V62.5H36.169a13.459 13.459 0 0 0-19.394 0H2.068v-5.155A1.034 1.034 0 0 1 3.1 56.314zm46.74 30.942H3.1a1.034 1.034 0 0 1-1.034-1.031v-5.158h14.709a13.459 13.459 0 0 0 19.394 0h14.708v5.157a1.034 1.034 0 0 1-1.034 1.032z" data-name="Path 311" transform="translate(0 -46)"/>
        <path id="Path_312" d="M223.249 86h-6.213a1.036 1.036 0 0 0 0 2.071h6.213a1.036 1.036 0 0 0 0-2.071z" data-name="Path 312" transform="translate(-193.67 -81.858)"/>
        <path id="Path_313" d="M175.32 224.64a9.32 9.32 0 1 0-9.32-9.32 9.331 9.331 0 0 0 9.32 9.32zm0-16.569a7.249 7.249 0 1 1-7.249 7.249 7.257 7.257 0 0 1 7.249-7.249z" data-name="Path 313" transform="translate(-148.848 -189.548)"/>
        <path id="Path_314" d="M207.036 252.213a1.036 1.036 0 0 0 1.036-1.036 3.11 3.11 0 0 1 3.107-3.107 1.036 1.036 0 0 0 0-2.071 5.184 5.184 0 0 0-5.179 5.179 1.036 1.036 0 0 0 1.036 1.035z" data-name="Path 314" transform="translate(-184.702 -225.386)"/>
        <path id="Path_315" d="M433.036 168.071h2.071a1.036 1.036 0 1 0 0-2.071h-2.071a1.036 1.036 0 0 0 0 2.071z" data-name="Path 315" transform="translate(-387.34 -153.626)"/>
    </g>
</svg>
