<svg xmlns="http://www.w3.org/2000/svg" width="88" height="72" viewBox="0 0 88 72">
    <defs>
        <style>
            .cls-1{fill:#f37935}.cls-2{fill:#cef}.cls-3{fill:#57555c}.cls-4{fill:#fff}
        </style>
    </defs>
    <g id="camera_1_" data-name="camera(1)" transform="translate(0 -46)">
        <path id="Rectangle_13" d="M0 0h83.874v28H0z" class="cls-1" data-name="Rectangle 13" transform="translate(2 74.81)"/>
        <g id="Group_363" data-name="Group 363" transform="translate(1.721 47.721)">
            <path id="Path_306" d="M10 376v10.327a3.439 3.439 0 0 0 3.437 3.442H91.12a3.439 3.439 0 0 0 3.437-3.442V376z" class="cls-2" data-name="Path 306" transform="translate(-10 -321.212)"/>
            <path id="Path_307" d="M91.12 69.77H71.184L65.26 57.9a3.438 3.438 0 0 0-3.075-1.9H42.372a3.438 3.438 0 0 0-3.072 1.9l-5.926 11.87h-6.187v-3.443a3.439 3.439 0 0 0-3.437-3.442h-3.438a3.439 3.439 0 0 0-3.437 3.442v3.443h-3.438A3.439 3.439 0 0 0 10 73.212v10.327h84.558V73.212a3.439 3.439 0 0 0-3.438-3.442z" class="cls-2" data-name="Path 307" transform="translate(-10 -56)"/>
        </g>
        <path id="Path_308" d="M177.309 196.655A20.655 20.655 0 1 1 156.655 176a20.658 20.658 0 0 1 20.654 20.655z" class="cls-3" data-name="Path 308" transform="translate(-112.655 -107.915)"/>
        <path id="Path_309" d="M189.77 216A13.77 13.77 0 1 1 176 229.77 13.786 13.786 0 0 1 189.77 216z" class="cls-4" data-name="Path 309" transform="translate(-145.77 -140.93)"/>
        <path id="Path_310" d="M393.721 169.442a1.721 1.721 0 1 0-1.721-1.721 1.722 1.722 0 0 0 1.721 1.721z" data-name="Path 310" transform="translate(-324.629 -99.433)"/>
        <path id="Path_311" d="M82.844 59.714H63.968l-5.449-10.871A5.131 5.131 0 0 0 53.907 46H34.093a5.13 5.13 0 0 0-4.612 2.844l-5.449 10.87h-3.407V58a5.155 5.155 0 0 0-5.156-5.143h-3.438A5.155 5.155 0 0 0 6.875 58v1.714H5.156A5.155 5.155 0 0 0 0 64.857v48A5.155 5.155 0 0 0 5.156 118h77.688A5.155 5.155 0 0 0 88 112.857v-48a5.155 5.155 0 0 0-5.156-5.143zM3.438 76.84h21.733a22.271 22.271 0 0 0 0 24.017H3.438zm21.656 12.017A18.906 18.906 0 1 1 44 107.714a18.891 18.891 0 0 1-18.906-18.857zm41.25 0a22.194 22.194 0 0 0-3.515-12h21.734v24H62.829a22.194 22.194 0 0 0 3.515-12zm-33.788-38.48a1.71 1.71 0 0 1 1.537-.948h19.814a1.71 1.71 0 0 1 1.538.948l4.681 9.337H27.875zM10.313 58a1.718 1.718 0 0 1 1.719-1.714h3.438A1.718 1.718 0 0 1 17.187 58v1.714h-6.874zm-5.157 5.143h77.688a1.718 1.718 0 0 1 1.719 1.714v8.571H60.117a22.37 22.37 0 0 0-32.235 0H3.438v-8.571a1.718 1.718 0 0 1 1.718-1.714zm77.688 51.429H5.156a1.718 1.718 0 0 1-1.719-1.714v-8.571h24.446a22.37 22.37 0 0 0 32.235 0h24.445v8.571a1.718 1.718 0 0 1-1.719 1.713z" data-name="Path 311"/>
        <path id="Path_312" d="M228.048 86h-10.327a1.721 1.721 0 0 0 0 3.442h10.327a1.721 1.721 0 1 0 0-3.442z" data-name="Path 312" transform="translate(-178.885 -33.115)"/>
        <path id="Path_313" d="M181.491 236.982A15.491 15.491 0 1 0 166 221.491a15.508 15.508 0 0 0 15.491 15.491zm0-27.539a12.048 12.048 0 1 1-12.048 12.048 12.062 12.062 0 0 1 12.048-12.049z" data-name="Path 313" transform="translate(-137.491 -132.655)"/>
        <path id="Path_314" d="M207.721 256.327a1.721 1.721 0 0 0 1.721-1.721 5.169 5.169 0 0 1 5.164-5.164 1.721 1.721 0 0 0 0-3.442 8.616 8.616 0 0 0-8.606 8.606 1.721 1.721 0 0 0 1.721 1.721z" data-name="Path 314" transform="translate(-170.6 -165.737)"/>
        <path id="Path_315" d="M433.721 169.442h3.442a1.721 1.721 0 1 0 0-3.442h-3.442a1.721 1.721 0 0 0 0 3.442z" data-name="Path 315" transform="translate(-357.77 -99.433)"/>
    </g>
</svg>
