<svg xmlns="http://www.w3.org/2000/svg" width="34.896" height="43.318" viewBox="0 0 34.896 43.318">
    <defs>
        <style>
            .cls-1{fill:#edebed}.cls-2{fill:#dbd9dc}.cls-3{fill:#f7d291}.cls-4{fill:#55ba6a}.cls-5{fill:#f0c382}.cls-6{fill:#ffe1a0}.cls-7{fill:#64505a}.cls-8{fill:#5a4650}.cls-9{fill:#6e5a64}.cls-10{fill:#e6646e}
        </style>
    </defs>
    <g id="cricket_2_" data-name="cricket(2)">
        <path id="Path_316" d="M45.688 356.754a13.587 13.587 0 1 1 27.174 0zm0 0" class="cls-1" data-name="Path 316" transform="translate(-41.827 -314.07)"/>
        <path id="Path_317" d="M61.437 343.28a13.646 13.646 0 0 0-15.75 13.474h4.225a13.64 13.64 0 0 1 11.525-13.474zm0 0" class="cls-2" data-name="Path 317" transform="translate(-41.826 -314.07)"/>
        <path id="Path_318" d="M187 417.192h-2.915a.529.529 0 0 1-.529-.529V412.2a.529.529 0 0 1 .529-.529H187a.529.529 0 0 1 .528.529v4.463a.529.529 0 0 1-.528.529zm0 0" class="cls-2" data-name="Path 318" transform="translate(-168.094 -376.831)"/>
        <path id="Path_319" d="M154.092 302.332H149.2v4.35l4.89 4.889 4.89-4.889v-4.35zm0 0" class="cls-3" data-name="Path 319" transform="translate(-136.645 -276.744)"/>
        <path id="Path_320" d="M208.666 352.8l-1.6-1.6 5.582-5.582 1.6 1.6a.961.961 0 0 1 0 1.359l-4.223 4.223a.962.962 0 0 1-1.359 0zm0 0" class="cls-4" data-name="Path 320" transform="translate(-189.629 -316.364)"/>
        <path id="Path_321" d="M236.026 347.552a.957.957 0 0 0-.217-.334l-1.6-1.6-3.592 3.592a16.214 16.214 0 0 0 5.409-1.658zm0 0" class="cls-4" data-name="Path 321" transform="translate(-211.192 -316.369)"/>
        <path id="Path_322" d="M124.556 352.8l1.6-1.6-5.582-5.582-1.6 1.6a.961.961 0 0 0 0 1.359l4.226 4.223a.962.962 0 0 0 1.356 0zm0 0" class="cls-4" data-name="Path 322" transform="translate(-108.699 -316.364)"/>
        <path id="Path_323" d="M124.873 349.205l-3.592-3.592-1.6 1.6a.959.959 0 0 0-.217.334 16.212 16.212 0 0 0 5.409 1.658zm0 0" class="cls-4" data-name="Path 323" transform="translate(-109.4 -316.369)"/>
        <path id="Path_324" d="M149.2 302.332v4.35l2.9 2.9a16.366 16.366 0 0 0 3.981 0l2.9-2.9v-4.35zm0 0" class="cls-5" data-name="Path 324" transform="translate(-136.645 -276.746)"/>
        <path id="Path_325" d="M343.707 174.06a2.9 2.9 0 1 1-2.9-2.9 2.9 2.9 0 0 1 2.9 2.9zm0 0" class="cls-3" data-name="Path 325" transform="translate(-309.445 -156.672)"/>
        <path id="Path_326" d="M13.309 174.06a2.9 2.9 0 1 1-2.9-2.9 2.9 2.9 0 0 1 2.9 2.9zm0 0" class="cls-5" data-name="Path 326" transform="translate(-6.866 -156.672)"/>
        <path id="Path_327" d="M62.893 37.151A14.6 14.6 0 1 1 48.292 22.5a14.626 14.626 0 0 1 14.601 14.651zm0 0" class="cls-6" data-name="Path 327" transform="translate(-30.844 -20.599)"/>
        <path id="Path_328" d="M37.917 37.151a14.653 14.653 0 0 1 12.538-14.5 14.651 14.651 0 1 0 0 29 14.653 14.653 0 0 1-12.538-14.5zm0 0" class="cls-3" data-name="Path 328" transform="translate(-30.844 -20.599)"/>
        <path id="Path_329" d="M50.438 20.8a.244.244 0 0 0 .24-.291 16.145 16.145 0 0 0-31.675 0 .244.244 0 0 0 .24.291zm0 0" class="cls-7" data-name="Path 329" transform="translate(-17.392 -6.867)"/>
        <path id="Path_330" d="M23.229 20.508A16.243 16.243 0 0 1 37 7.637a16.209 16.209 0 0 0-18 12.871.245.245 0 0 0 .241.291h4.225a.244.244 0 0 1-.241-.291zm0 0" class="cls-8" data-name="Path 330" transform="translate(-17.393 -6.865)"/>
        <path id="Path_331" d="M68.933 124.117c-5.24 0-12.7 2.028-12.7 3.507v1.658a.605.605 0 0 0 .768.584 45.2 45.2 0 0 1 11.927-1.319 45.207 45.207 0 0 1 11.927 1.319.605.605 0 0 0 .768-.584v-1.658c0-1.479-7.455-3.507-12.7-3.507zm0 0" class="cls-9" data-name="Path 331" transform="translate(-51.486 -113.614)"/>
        <path id="Path_332" d="M60.463 138.039a1 1 0 0 1 .481-.7c-2.682.7-4.706 1.621-4.706 2.39v1.658a.607.607 0 0 0 .771.584 30.063 30.063 0 0 1 3.454-.721zm0 0" class="cls-7" data-name="Path 332" transform="translate(-51.486 -125.718)"/>
        <path id="Path_333" d="M34.9 17.388a3.539 3.539 0 0 0-1.482-2.888.878.878 0 0 0 .491-.969A16.839 16.839 0 0 0 30 5.671a.63.63 0 0 0-.892-.053.636.636 0 0 0-.052.9 15.578 15.578 0 0 1 3.515 6.8H30.56a3.685 3.685 0 0 0-1.36-1.045 17.978 17.978 0 0 0-3.259-1.184 34.121 34.121 0 0 0-8.488-1.223 34.126 34.126 0 0 0-8.489 1.223A17.983 17.983 0 0 0 5.7 12.273a3.685 3.685 0 0 0-1.365 1.042H2.326a15.493 15.493 0 0 1 25.1-8.389.633.633 0 0 0 .813-.971A16.756 16.756 0 0 0 .986 13.534a.879.879 0 0 0 .491.969 3.552 3.552 0 0 0 .73 6.171v2.276c0 .154 0 .308.01.46v.015a.6.6 0 0 0 0 .069 10.929 10.929 0 0 0 .951 3.961.616.616 0 0 0 .051.109 11.023 11.023 0 0 0 4.356 4.826 14.275 14.275 0 0 0-4.357 10.293.633.633 0 0 0 .632.635h27.2a.633.633 0 0 0 .632-.635 14.273 14.273 0 0 0-4.361-10.293 11.028 11.028 0 0 0 4.353-4.826.631.631 0 0 0 .05-.109 10.93 10.93 0 0 0 .951-3.961.677.677 0 0 0 0-.069v-.015c.006-.153.011-.306.011-.461v-2.276a3.54 3.54 0 0 0 2.214-3.285zm-4.185 9.22h-1.771a15.377 15.377 0 0 0 1.792-2.549h.626a9.656 9.656 0 0 1-.651 2.549zM24.166 31.3a.329.329 0 0 1 0 .464l-.744.747a9.591 9.591 0 0 1-1.025.122v-1.587q.558-.193 1.1-.428zM4.107 14.584v1.088a1.236 1.236 0 0 0 1.571 1.2 44.822 44.822 0 0 1 11.77-1.3 44.823 44.823 0 0 1 11.77 1.3 1.242 1.242 0 0 0 .335.046 1.24 1.24 0 0 0 1.236-1.242v-1.092h.5a14.262 14.262 0 0 1 .14 1.988 14 14 0 0 1-1.45 6.218H4.921a13.992 13.992 0 0 1-1.45-6.218 14.262 14.262 0 0 1 .14-1.988zm14.52 13.293h2.505v2.233a13.934 13.934 0 0 1-7.37 0v-2.233h2.505a.635.635 0 0 0 0-1.269h-2.504v-2.549h7.37v2.549h-2.506a.635.635 0 0 0 0 1.269zm2.505 4.772h-.62l.62-.623zm-3.685 1.283l-.014-.014h.027zm-1.277-1.283l-.932-.936a15.2 15.2 0 0 0 4.418 0l-.931.935zm-2.407-.622l.619.622h-.619zM3.523 22.79h-.052v-.12zm.011 1.269h.626a15.376 15.376 0 0 0 1.792 2.549H4.185a9.655 9.655 0 0 1-.65-2.549zm2.1 0H12.5v2.549H7.689a14.113 14.113 0 0 1-2.057-2.549zm6.866 3.818V29.7a13.954 13.954 0 0 1-3.323-1.819zm-1.77 3.882a.329.329 0 0 1 0-.464l.674-.677q.538.234 1.1.428v1.582a9.7 9.7 0 0 1-1.026-.122zm2.4 2.159h2.515l.908.911-1.153 1.158a.326.326 0 0 1-.462 0l-2.063-2.072h.255zm2.97 3.132a1.6 1.6 0 0 0 .2-.166l1.153-1.157 1.147 1.157a1.591 1.591 0 0 0 .2.165v2.673h-2.7zm3.857-1.063a.333.333 0 0 1-.462 0l-1.152-1.157.907-.911h2.769zM22.4 29.7v-1.823h3.322A13.958 13.958 0 0 1 22.4 29.7zm0-3.088v-2.553h6.867a14.125 14.125 0 0 1-2.057 2.549zm8.976-3.818l.052-.12v.12zM9.611 12.227a32.9 32.9 0 0 1 7.836-1.092 32.9 32.9 0 0 1 7.836 1.092c3.131.823 4.12 1.589 4.241 1.817v1.592A45.806 45.806 0 0 0 17.448 14.3a45.72 45.72 0 0 0-12.077 1.337v-1.592c.121-.228 1.11-.995 4.241-1.817zm-8.347 5.161a2.269 2.269 0 0 1 .943-1.846v3.693a2.269 2.269 0 0 1-.943-1.847zm3.55 10.489h2.373a15.328 15.328 0 0 0 3.013 2.154l-.365.366a1.593 1.593 0 0 0-.292.4q-.5.334-.96.7a9.745 9.745 0 0 1-3.769-3.627zM30.4 42.049H4.5a13 13 0 0 1 4.275-9.043 10.817 10.817 0 0 0 2.08.672l3.194 3.206a1.578 1.578 0 0 0 .789.431v2.512a1.163 1.163 0 0 0 1.159 1.164H18.9a1.163 1.163 0 0 0 1.159-1.164v-2.513a1.579 1.579 0 0 0 .789-.43l3.193-3.206a10.77 10.77 0 0 0 2.081-.672 13 13 0 0 1 4.278 9.043zM26.313 31.5q-.463-.37-.962-.7a1.592 1.592 0 0 0-.291-.4l-.365-.366a15.337 15.337 0 0 0 3.014-2.154h2.373a9.748 9.748 0 0 1-3.77 3.627zm6.376-12.271v-3.687a2.278 2.278 0 0 1 0 3.692zm0 0" data-name="Path 333" transform="translate(0 .001)"/>
        <path id="Path_334" d="M184.858 236.771a2.273 2.273 0 0 0 1.966-1.138.634.634 0 0 0-1.1-.632 1 1 0 0 1-1.733 0 .634.634 0 0 0-1.1.632 2.273 2.273 0 0 0 1.967 1.138zm0 0" data-name="Path 334" transform="translate(-167.41 -214.827)"/>
        <path id="Path_335" d="M263.892 205.981a.634.634 0 0 0 .634-.634v-.96a.634.634 0 1 0-1.268 0v.96a.634.634 0 0 0 .634.634zm0 0" data-name="Path 335" transform="translate(-241.078 -186.513)"/>
        <path id="Path_336" d="M136.513 205.981a.634.634 0 0 0 .634-.634v-.96a.634.634 0 0 0-1.268 0v.96a.634.634 0 0 0 .634.634zm0 0" data-name="Path 336" transform="translate(-124.431 -186.513)"/>
        <g id="Group_364" data-name="Group 364" transform="translate(10.952 20.016)">
            <path id="Path_337" d="M259.172 237.842h-.96a.634.634 0 1 1 0-1.268h.96a.634.634 0 0 1 0 1.268zm0 0" class="cls-10" data-name="Path 337" transform="translate(-246.814 -236.574)"/>
            <path id="Path_338" d="M131.793 237.842h-.96a.634.634 0 1 1 0-1.268h.96a.634.634 0 1 1 0 1.268zm0 0" class="cls-10" data-name="Path 338" transform="translate(-130.199 -236.574)"/>
        </g>
    </g>
</svg>
