<svg xmlns="http://www.w3.org/2000/svg" id="cricket_2_" width="58" height="72" data-name="cricket(2)" viewBox="0 0 58 72">
    <defs>
        <style>
            .cls-1{fill:#edebed}.cls-2{fill:#dbd9dc}.cls-3{fill:#f7d291}.cls-4{fill:#7259d9}.cls-5{fill:#f0c382}.cls-6{fill:#ffe1a0}.cls-7{fill:#64505a}.cls-8{fill:#5a4650}.cls-9{fill:#6e5a64}.cls-10{fill:#e6646e}
        </style>
    </defs>
    <path id="Path_316" d="M45.688 365.784a22.583 22.583 0 1 1 45.166 0zm0 0" class="cls-1" data-name="Path 316" transform="translate(-39.27 -294.838)"/>
    <path id="Path_317" d="M71.865 343.388a22.682 22.682 0 0 0-26.178 22.4h7.023a22.672 22.672 0 0 1 19.155-22.4zm0 0" class="cls-2" data-name="Path 317" transform="translate(-39.27 -294.838)"/>
    <path id="Path_318" d="M189.28 420.847h-4.846a.879.879 0 0 1-.879-.879v-7.418a.879.879 0 0 1 .879-.879h4.846a.879.879 0 0 1 .878.879v7.418a.879.879 0 0 1-.878.879zm0 0" class="cls-2" data-name="Path 318" transform="translate(-157.857 -353.764)"/>
    <path id="Path_319" d="M157.33 302.332h-8.13v7.231l8.127 8.127 8.127-8.127v-7.231zm0 0" class="cls-3" data-name="Path 319" transform="translate(-128.33 -259.803)"/>
    <path id="Path_320" d="M209.728 357.557l-2.665-2.666 9.278-9.278 2.666 2.666a1.6 1.6 0 0 1 0 2.259l-7.018 7.019a1.6 1.6 0 0 1-2.261 0zm0 0" class="cls-4" data-name="Path 320" transform="translate(-178.086 -296.999)"/>
    <path id="Path_321" d="M239.609 348.835a1.589 1.589 0 0 0-.36-.556l-2.666-2.666-5.97 5.97a26.948 26.948 0 0 0 8.996-2.748zm0 0" class="cls-4" data-name="Path 321" transform="translate(-198.332 -297.007)"/>
    <path id="Path_322" d="M128.438 357.557l2.666-2.666-9.278-9.278-2.666 2.666a1.6 1.6 0 0 0 0 2.259l7.018 7.019a1.6 1.6 0 0 0 2.26 0zm0 0" class="cls-4" data-name="Path 322" transform="translate(-102.082 -296.999)"/>
    <path id="Path_323" d="M128.457 351.584l-5.97-5.97-2.666 2.666a1.594 1.594 0 0 0-.36.555 26.945 26.945 0 0 0 8.996 2.749zm0 0" class="cls-4" data-name="Path 323" transform="translate(-102.739 -297.007)"/>
    <path id="Path_324" d="M149.2 302.332v7.231l4.819 4.819a27.2 27.2 0 0 0 6.617 0l4.819-4.819v-7.231zm0 0" class="cls-5" data-name="Path 324" transform="translate(-128.33 -259.806)"/>
    <path id="Path_325" d="M347.553 175.983a4.827 4.827 0 1 1-4.827-4.827 4.827 4.827 0 0 1 4.827 4.827zm0 0" class="cls-3" data-name="Path 325" transform="translate(-290.606 -147.083)"/>
    <path id="Path_326" d="M17.155 175.983a4.827 4.827 0 1 1-4.828-4.827 4.827 4.827 0 0 1 4.828 4.827zm0 0" class="cls-5" data-name="Path 326" transform="translate(-6.446 -147.083)"/>
    <path id="Path_327" d="M82.227 46.852A24.268 24.268 0 1 1 57.959 22.5a24.31 24.31 0 0 1 24.268 24.352zm0 0" class="cls-6" data-name="Path 327" transform="translate(-28.959 -19.34)"/>
    <path id="Path_328" d="M40.714 46.852a24.356 24.356 0 0 1 20.84-24.1 24.352 24.352 0 1 0 0 48.2 24.356 24.356 0 0 1-20.84-24.1zm0 0" class="cls-3" data-name="Path 328" transform="translate(-28.959 -19.34)"/>
    <path id="Path_329" d="M71.254 29.606a.406.406 0 0 0 .4-.483 26.835 26.835 0 0 0-52.647 0 .406.406 0 0 0 .4.483zm0 0" class="cls-7" data-name="Path 329" transform="translate(-16.329 -6.448)"/>
    <path id="Path_330" d="M26.029 29.121a27 27 0 0 1 22.9-21.392 26.941 26.941 0 0 0-29.922 21.392.407.407 0 0 0 .4.483h7.023a.406.406 0 0 1-.4-.483zm0 0" class="cls-8" data-name="Path 330" transform="translate(-16.33 -6.446)"/>
    <path id="Path_331" d="M77.339 124.117c-8.709 0-21.1 3.371-21.1 5.829v2.754a1.006 1.006 0 0 0 1.277.971c2.588-.727 9.129-2.192 19.824-2.192s17.236 1.465 19.824 2.192a1.006 1.006 0 0 0 1.277-.971v-2.756c0-2.458-12.392-5.829-21.1-5.829zm0 0" class="cls-9" data-name="Path 331" transform="translate(-48.339 -106.66)"/>
    <path id="Path_332" d="M63.261 138.5a1.662 1.662 0 0 1 .8-1.163c-4.458 1.169-7.822 2.694-7.822 3.972v2.756a1.009 1.009 0 0 0 1.282.971 49.976 49.976 0 0 1 5.741-1.2zm0 0" class="cls-7" data-name="Path 332" transform="translate(-48.339 -118.024)"/>
    <path id="Path_333" d="M58 28.9a5.883 5.883 0 0 0-2.455-4.8 1.46 1.46 0 0 0 .816-1.61 27.988 27.988 0 0 0-6.5-13.069 1.047 1.047 0 0 0-1.483-.087 1.058 1.058 0 0 0-.087 1.489 25.893 25.893 0 0 1 5.842 11.3h-3.34a6.126 6.126 0 0 0-2.268-1.723 29.882 29.882 0 0 0-5.417-1.968A56.713 56.713 0 0 0 29 16.4a56.72 56.72 0 0 0-14.109 2.032A29.89 29.89 0 0 0 9.475 20.4a6.126 6.126 0 0 0-2.268 1.732H3.866A25.752 25.752 0 0 1 45.589 8.188a1.053 1.053 0 0 0 1.352-1.614A27.851 27.851 0 0 0 1.639 22.5a1.461 1.461 0 0 0 .817 1.61 5.9 5.9 0 0 0 1.212 10.252v3.783c0 .257.007.511.017.765v.025a1 1 0 0 0 .007.115 18.166 18.166 0 0 0 1.581 6.584 1.025 1.025 0 0 0 .084.181 18.322 18.322 0 0 0 7.236 8.022 23.726 23.726 0 0 0-7.245 17.108A1.052 1.052 0 0 0 6.4 72h45.2a1.052 1.052 0 0 0 1.05-1.055 23.724 23.724 0 0 0-7.24-17.109 18.33 18.33 0 0 0 7.236-8.022 1.049 1.049 0 0 0 .084-.181 18.167 18.167 0 0 0 1.581-6.584 1.125 1.125 0 0 0 .006-.114v-.024c.01-.254.018-.509.018-.766v-3.783A5.884 5.884 0 0 0 58 28.9zm-6.955 15.326h-2.937a25.558 25.558 0 0 0 2.978-4.236h1.04a16.049 16.049 0 0 1-1.082 4.236zm-10.878 7.79a.547.547 0 0 1 0 .771l-1.237 1.242a15.942 15.942 0 0 1-1.7.2V51.6q.927-.321 1.821-.711zM6.826 24.241v1.808a2.055 2.055 0 0 0 2.612 1.988c2.307-.648 8.831-2.156 19.562-2.156s17.255 1.508 19.562 2.156a2.064 2.064 0 0 0 .557.077 2.061 2.061 0 0 0 2.055-2.065v-1.808H52a23.706 23.706 0 0 1 .233 3.3 23.263 23.263 0 0 1-2.411 10.339H8.178a23.256 23.256 0 0 1-2.409-10.335A23.7 23.7 0 0 1 6 24.241zm24.135 22.094h4.164v3.711a23.161 23.161 0 0 1-12.25 0v-3.711h4.164a1.055 1.055 0 0 0 0-2.109h-4.164V39.99h12.25v4.236h-4.164a1.055 1.055 0 0 0 0 2.109zm4.164 7.932h-1.031l1.031-1.035zM29 56.4l-.023-.023h.045zm-2.124-2.132l-1.549-1.555a25.258 25.258 0 0 0 7.344 0l-1.548 1.555zm-4-1.033l1.024 1.032h-1.025zM5.856 37.88h-.087v-.2c.031.067.057.134.087.2zm.019 2.109h1.04a25.556 25.556 0 0 0 2.978 4.236H6.956a16.048 16.048 0 0 1-1.081-4.235zm3.485 0h11.415v4.236H12.78a23.458 23.458 0 0 1-3.42-4.235zm11.415 6.346v3.024a23.193 23.193 0 0 1-5.523-3.024zm-2.942 6.452a.547.547 0 0 1 0-.771l1.12-1.124q.894.389 1.822.711v2.629a16.125 16.125 0 0 1-1.706-.2zm3.993 3.589h4.18l1.509 1.514-1.915 1.924a.542.542 0 0 1-.768 0L21.4 56.371c.141 0 .282.005.423.005zm4.932 5.2a2.665 2.665 0 0 0 .326-.275L29 59.383l1.915 1.923a2.644 2.644 0 0 0 .326.275v4.442h-4.483zm6.41-1.767a.554.554 0 0 1-.768 0l-1.915-1.923 1.508-1.514h4.182c.141 0 .281 0 .421-.005zm4.058-10.455v-3.019h5.522a23.2 23.2 0 0 1-5.522 3.024zm0-5.133V39.99H48.64a23.478 23.478 0 0 1-3.419 4.236zm14.919-6.341l.087-.2v.2zm-36.17-17.557A54.689 54.689 0 0 1 29 18.508a54.685 54.685 0 0 1 13.025 1.815c5.2 1.367 6.848 2.642 7.049 3.021v2.646c-3-.836-9.543-2.219-20.074-2.219s-17.092 1.385-20.073 2.22v-2.647c.2-.379 1.844-1.653 7.049-3.021zM2.1 28.9a3.772 3.772 0 0 1 1.567-3.068v6.138A3.772 3.772 0 0 1 2.1 28.9zM8 46.335h3.944a25.477 25.477 0 0 0 5.008 3.58l-.607.609a2.647 2.647 0 0 0-.485.672q-.826.555-1.6 1.168A16.2 16.2 0 0 1 8 46.335zM50.526 69.89H7.474a21.606 21.606 0 0 1 7.106-15.03 17.98 17.98 0 0 0 3.457 1.116l5.308 5.329a2.623 2.623 0 0 0 1.311.717V66.2a1.933 1.933 0 0 0 1.927 1.935h4.832a1.933 1.933 0 0 0 1.927-1.935v-4.18a2.624 2.624 0 0 0 1.312-.715l5.307-5.329a17.9 17.9 0 0 0 3.459-1.116 21.6 21.6 0 0 1 7.107 15.03zm-6.792-17.525q-.77-.615-1.6-1.169a2.646 2.646 0 0 0-.484-.671l-.606-.608a25.491 25.491 0 0 0 5.01-3.581H50a16.2 16.2 0 0 1-6.266 6.029zm10.6-20.4v-6.132a3.787 3.787 0 0 1 0 6.136zm0 0" data-name="Path 333"/>
    <path id="Path_334" d="M186.215 238.153a3.778 3.778 0 0 0 3.267-1.891 1.053 1.053 0 0 0-1.826-1.05 1.661 1.661 0 0 1-2.881 0 1.053 1.053 0 0 0-1.826 1.05 3.778 3.778 0 0 0 3.266 1.891zm0 0" data-name="Path 334" transform="translate(-157.215 -201.68)"/>
    <path id="Path_335" d="M264.311 207.455a1.053 1.053 0 0 0 1.053-1.053v-1.595a1.053 1.053 0 1 0-2.107 0v1.593a1.053 1.053 0 0 0 1.054 1.055zm0 0" data-name="Path 335" transform="translate(-226.392 -175.099)"/>
    <path id="Path_336" d="M136.932 207.455a1.053 1.053 0 0 0 1.053-1.053v-1.595a1.053 1.053 0 1 0-2.107 0v1.593a1.053 1.053 0 0 0 1.054 1.055zm0 0" data-name="Path 336" transform="translate(-116.851 -175.099)"/>
    <g id="Group_364" data-name="Group 364" transform="translate(18.204 33.269)">
        <path id="Path_337" d="M260.227 238.681h-1.595a1.053 1.053 0 1 1 0-2.107h1.595a1.053 1.053 0 1 1 0 2.107zm0 0" class="cls-10" data-name="Path 337" transform="translate(-239.688 -236.574)"/>
        <path id="Path_338" d="M132.848 238.681h-1.595a1.053 1.053 0 1 1 0-2.107h1.595a1.053 1.053 0 1 1 0 2.107zm0 0" class="cls-10" data-name="Path 338" transform="translate(-130.199 -236.574)"/>
    </g>
</svg>
