<svg xmlns="http://www.w3.org/2000/svg" width="43.322" height="43.318" viewBox="0 0 43.322 43.318">
    <defs>
        <style>
            .cls-1{fill:#ffe0b2}.cls-2{fill:#dfc49c}.cls-3{fill:#02a9f4}.cls-4{fill:#393f4a}.cls-5{fill:#9d27b0}.cls-6{fill:#6a1b9a}.cls-7{fill:#60a917}.cls-8{fill:#549414}.cls-9{fill:#a12e71}
        </style>
    </defs>
    <g id="_006---Hiking" data-name="006---Hiking">
        <g id="Layer_3" transform="translate(.733 .602)">
            <circle id="Oval" cx="3.61" cy="3.61" r="3.61" class="cls-1" transform="translate(23.043)"/>
            <path id="Shape" d="M36.594 0A3.6 3.6 0 0 0 35.5.186a3.621 3.621 0 0 1 0 6.92 3.6 3.6 0 0 0 1.094.186 3.646 3.646 0 0 0 0-7.292z" class="cls-2" transform="translate(-9.914 .128)"/>
            <path id="Shape-2" d="M41.426 20.741a1.463 1.463 0 0 1-1.459 1.459h-5.061a2.924 2.924 0 0 1-2.377-1.218l-1.444-2.027-1.765 5.287-5.6-1.867 2.705-8.014a3.083 3.083 0 0 1 .372-.817 3.359 3.359 0 0 1 5.644-.08l3.449 5.17a1.445 1.445 0 0 0 1.211.649h2.866a1.463 1.463 0 0 1 1.459 1.458z" class="cls-3" data-name="Shape" transform="translate(-6.73 -3.24)"/>
            <path id="Shape-3" d="M37.375 49v1.335a2.269 2.269 0 0 1-2.027 2.3A2.188 2.188 0 0 1 33 50.458V49z" class="cls-4" data-name="Shape" transform="translate(-9.213 -13.576)"/>
            <path id="Shape-4" d="M34.67 36.931v5.907h-4.375V39.7a3.63 3.63 0 0 0-.758-2.224l-2.684-3v-.007l-2.946-3.3a4.361 4.361 0 0 1-.89-2.917 3.51 3.51 0 0 1 .117-.824 1.823 1.823 0 0 1 .051-.19l.335-1h.007l5.6 1.867-.022.073a1.44 1.44 0 0 0 .292 1.429l4.354 4.9a3.653 3.653 0 0 1 .919 2.421z" class="cls-5" data-name="Shape" transform="translate(-6.47 -7.302)"/>
            <path id="Shape-5" d="M18.075 50.739l-.51.656a2.281 2.281 0 0 1-3.019.583 2.192 2.192 0 0 1-.525-3.165l.656-.9z" class="cls-4" data-name="Shape" transform="translate(-3.788 -13.28)"/>
            <path id="Shape-6" d="M24.709 35.213v.007l-.43 2.479a2.159 2.159 0 0 1-.423.963l-5.367 6.957-3.4-2.829 4.4-6.06a2.145 2.145 0 0 0 .4-.977L20.858 29h.015a4.361 4.361 0 0 0 .89 2.917z" class="cls-6" data-name="Shape" transform="translate(-4.234 -8.16)"/>
            <path id="Shape-7" d="M.078 55.862L.8 54.4a.721.721 0 0 1 .644-.4h38.973a.721.721 0 0 1 .645.4l.722 1.458a.736.736 0 0 1-.032.709.72.72 0 0 1-.614.346H.722a.72.72 0 0 1-.613-.346.736.736 0 0 1-.031-.709z" class="cls-7" data-name="Shape" transform="translate(-.002 -14.929)"/>
            <path id="Shape-8" d="M56.568 55.862l-.729-1.462a.729.729 0 0 0-.651-.4H53a.729.729 0 0 1 .652.4l.729 1.458a.729.729 0 0 1-.652 1.055h2.188a.729.729 0 0 0 .651-1.055z" class="cls-8" data-name="Shape" transform="translate(-14.787 -14.929)"/>
            <path id="Shape-9" d="M24.044 11.32l-.394 1.138a3.083 3.083 0 0 0-.372.817l-3.048 9.012a1.823 1.823 0 0 0-.051.19l-.43 1.247a1.458 1.458 0 0 1-1.86.9l-4.74-1.641a1.519 1.519 0 0 1-1.021-1.757 1.474 1.474 0 0 1 1.9-1.028l.693.241a1.469 1.469 0 0 1-.9-1.86l3.34-9.641a1.469 1.469 0 0 1 1.86-.9l4.135 1.437a1.458 1.458 0 0 1 .9 1.852z" class="cls-9" data-name="Shape" transform="translate(-3.403 -2.025)"/>
            <path id="Shape-10" d="M25.013 9.468l-4.134-1.437a1.458 1.458 0 0 0-1.414.269l3.361 1.167a1.458 1.458 0 0 1 .9 1.852l-.394 1.138a3.083 3.083 0 0 0-.372.817l-3.048 9.014a1.824 1.824 0 0 0-.051.19l-.43 1.247a1.436 1.436 0 0 1-.438.631l.769.266a1.458 1.458 0 0 0 1.86-.9l.43-1.247a1.823 1.823 0 0 1 .051-.19l3.048-9.013a3.083 3.083 0 0 1 .372-.817l.394-1.138a1.458 1.458 0 0 0-.9-1.852z" class="cls-9" data-name="Shape" transform="translate(-5.314 -2.026)"/>
        </g>
        <g id="Layer_12">
            <path id="Shape-11" d="M37.375 8.751A4.375 4.375 0 1 0 33 4.375a4.375 4.375 0 0 0 4.375 4.376zm0-7.292a2.917 2.917 0 1 1-2.917 2.917 2.917 2.917 0 0 1 2.917-2.918z" data-name="Shape" transform="translate(-9.953)"/>
            <path id="Shape-12" d="M2.443 45.472h40.431a1.442 1.442 0 0 0 1.292-2.091l-.722-1.442a1.436 1.436 0 0 0-1.292-.793h-6.5V22.271a2.151 2.151 0 0 0 0-4.06v-3.737a.722.722 0 0 0-1.444 0v3.6h-2.113a.722.722 0 0 1-.6-.321l-3.415-5.107a4.047 4.047 0 0 0-5.031-1.446 2.153 2.153 0 0 0-1.417-1.71l-4.095-1.42a2.175 2.175 0 0 0-2.759 1.34l-.711 2.041a.721.721 0 0 0-.472 1.361l-.946 2.726a.721.721 0 0 0-.472 1.36c-.7 2.015-.93 2.4-.794 3.142a2.162 2.162 0 0 0-.129 4.171c4.889 1.7 5.149 1.922 6.05 1.641l-.65 4.569c-.072.5.232.116-5.267 7.516a2.88 2.88 0 0 0-.195 3.211H3.165a1.437 1.437 0 0 0-1.292.793l-.722 1.442a1.442 1.442 0 0 0 1.292 2.091zm27.729-4.325a3.085 3.085 0 0 0 .428-1.564v-7.159a4.311 4.311 0 0 0-1.092-2.872L25.193 24.7a.7.7 0 0 1-.139-.7l1.321-3.955.608.849A3.618 3.618 0 0 0 29.92 22.4h4.29v18.746zM23.674 12.5a2.611 2.611 0 0 1 3.2.949l3.412 5.11a2.167 2.167 0 0 0 1.8.963h2.837a.721.721 0 1 1 0 1.442H29.92a2.172 2.172 0 0 1-1.762-.905l-2.744-3.839a.722.722 0 1 0-1.174.838l1.1 1.539-1.652 4.947a2.143 2.143 0 0 0 .433 2.123l4.312 4.845a2.869 2.869 0 0 1 .723 1.914v7.159a1.535 1.535 0 0 1-1.337 1.564 1.443 1.443 0 0 1-1.551-1.449v-4.537a4.357 4.357 0 0 0-.934-2.679L19.8 26.292a3.578 3.578 0 0 1-.6-3.217c2.713-8.55 2.743-8.07 2.755-8.142.331-.977.539-1.919 1.729-2.434zm-4.251 5.38l-5.41-1.874.945-2.723 5.39 1.869zm-3.283-8a.73.73 0 0 1 .921-.448l4.094 1.42a.721.721 0 0 1 .442.914l-.361 1.047a4.283 4.283 0 0 0-.4.89c-.038.12.567.288-5.406-1.781zm.282 14.59l-4.692-1.623a.784.784 0 0 1-.551-.876.737.737 0 0 1 .942-.516c.737.256.78.293 1 .268 2.224.913 2.158.909 2.356.909a.721.721 0 0 0 .275-1.388 19.156 19.156 0 0 0-2.76-1.114.691.691 0 0 1-.162-.721l.708-2.04 5.419 1.874c-.269.8-1.341 3.987-1.615 4.782a.722.722 0 0 1-.918.444zm-3.871 14.325l5.005-6.876c.57-.766.512-1.153 1.038-4.839a40.2 40.2 0 0 0 2.773 3.133L21 32.327c-.082.49.212.022-6.1 8.153a1.461 1.461 0 0 1-2.655-.6 1.478 1.478 0 0 1 .3-1.086zm9.313-4.959a4.378 4.378 0 0 0 .728-2.253l1.629 1.822a2.848 2.848 0 0 1 .6 1.758V39.7a2.85 2.85 0 0 0 .4 1.442h-9.01zM2.443 44.03l.722-1.442h38.987l.722 1.442z" data-name="Shape" transform="translate(-.997 -2.153)"/>
        </g>
    </g>
</svg>
