<svg xmlns="http://www.w3.org/2000/svg" width="72.007" height="72" viewBox="0 0 72.007 72">
    <defs>
        <style>
            .cls-1{fill:#ffe0b2}.cls-2{fill:#dfc49c}.cls-3{fill:#02a9f4}.cls-4{fill:#393f4a}.cls-5{fill:#9d27b0}.cls-6{fill:#6a1b9a}.cls-7{fill:#60a917}.cls-8{fill:#549414}.cls-9{fill:#f44335}.cls-10{fill:#c81e1e}
        </style>
    </defs>
    <g id="_006---Hiking" data-name="006---Hiking" transform="translate(.003)">
        <g id="Layer_3" transform="translate(1.215 1)">
            <circle id="Oval" cx="6" cy="6" r="6" class="cls-1" transform="translate(38.3)"/>
            <path id="Shape" d="M37.318 0A5.983 5.983 0 0 0 35.5.309a6.019 6.019 0 0 1 0 11.5 5.983 5.983 0 0 0 1.818.309 6.06 6.06 0 1 0 0-12.118z" class="cls-2" transform="translate(7.027 .212)"/>
            <path id="Shape-2" d="M53.149 26.553a2.431 2.431 0 0 1-2.424 2.424h-8.412a4.859 4.859 0 0 1-3.951-2.024l-2.4-3.37-2.933 8.787-9.309-3.1 4.5-13.321a5.125 5.125 0 0 1 .618-1.358 5.584 5.584 0 0 1 9.381-.133l5.733 8.594a2.4 2.4 0 0 0 2.012 1.079h4.763a2.431 2.431 0 0 1 2.424 2.424z" class="cls-3" data-name="Shape" transform="translate(4.519 2.537)"/>
            <path id="Shape-3" d="M40.272 49v2.218a3.771 3.771 0 0 1-3.37 3.83A3.636 3.636 0 0 1 33 51.424V49z" class="cls-4" data-name="Shape" transform="translate(6.537 9.879)"/>
            <path id="Shape-4" d="M42.391 44.009v9.818h-7.272v-5.212a6.034 6.034 0 0 0-1.261-3.7L29.4 39.924v-.012l-4.9-5.479a7.248 7.248 0 0 1-1.479-4.848 5.835 5.835 0 0 1 .194-1.37 3.03 3.03 0 0 1 .085-.315l.558-1.661h.012l9.309 3.1-.036.121a2.393 2.393 0 0 0 .485 2.376l7.236 8.145a6.071 6.071 0 0 1 1.527 4.024z" class="cls-5" data-name="Shape" transform="translate(4.481 5.237)"/>
            <path id="Shape-5" d="M21.062 52.613l-.849 1.087a3.791 3.791 0 0 1-5.018.97 3.643 3.643 0 0 1-.873-5.26l1.091-1.5z" class="cls-4" data-name="Shape" transform="translate(2.685 9.648)"/>
            <path id="Shape-6" d="M31.077 39.327v.012l-.715 4.121a3.589 3.589 0 0 1-.7 1.6l-8.924 11.563-5.648-4.7 7.321-10.072a3.565 3.565 0 0 0 .667-1.624L24.677 29h.023a7.248 7.248 0 0 0 1.479 4.848z" class="cls-6" data-name="Shape" transform="translate(2.954 5.638)"/>
            <path id="Shape-7" d="M.128 57.094l1.2-2.424A1.2 1.2 0 0 1 2.4 54h64.776a1.2 1.2 0 0 1 1.072.67l1.2 2.424a1.223 1.223 0 0 1-.053 1.179 1.2 1.2 0 0 1-1.02.575H1.2a1.2 1.2 0 0 1-1.02-.575 1.223 1.223 0 0 1-.052-1.178z" class="cls-7" data-name="Shape" transform="translate(-.002 10.94)"/>
            <path id="Shape-8" d="M58.931 57.094l-1.212-2.424a1.212 1.212 0 0 0-1.083-.67H53a1.212 1.212 0 0 1 1.084.67l1.216 2.424a1.212 1.212 0 0 1-1.084 1.754h3.636a1.212 1.212 0 0 0 1.082-1.754z" class="cls-8" data-name="Shape" transform="translate(10.514 10.94)"/>
            <path id="Shape-9" d="M31.955 13.549L31.3 15.44a5.125 5.125 0 0 0-.618 1.358l-5.066 14.981a3.03 3.03 0 0 0-.085.315l-.715 2.073a2.424 2.424 0 0 1-3.091 1.491l-7.879-2.728a2.525 2.525 0 0 1-1.7-2.921A2.45 2.45 0 0 1 15.3 28.3l1.151.4a2.441 2.441 0 0 1-1.5-3.091L20.5 9.586a2.441 2.441 0 0 1 3.091-1.5l6.872 2.388a2.424 2.424 0 0 1 1.491 3.079z" class="cls-9" data-name="Shape" transform="translate(2.352 1.898)"/>
            <path id="Shape-10" d="M29 10.47l-6.871-2.387a2.424 2.424 0 0 0-2.35.447l5.586 1.939a2.424 2.424 0 0 1 1.491 3.079l-.656 1.891a5.125 5.125 0 0 0-.618 1.358l-5.065 14.982a3.031 3.031 0 0 0-.085.315l-.715 2.073a2.387 2.387 0 0 1-.727 1.048l1.278.442a2.424 2.424 0 0 0 3.091-1.491l.715-2.073a3.03 3.03 0 0 1 .085-.315L29.225 16.8a5.125 5.125 0 0 1 .618-1.358l.655-1.891A2.424 2.424 0 0 0 29 10.47z" class="cls-10" data-name="Shape" transform="translate(3.741 1.899)"/>
        </g>
        <g id="Layer_12" transform="translate(-.003)">
            <path id="Shape-11" d="M40.272 14.545A7.272 7.272 0 1 0 33 7.272a7.272 7.272 0 0 0 7.272 7.273zm0-12.121a4.848 4.848 0 1 1-4.848 4.848 4.848 4.848 0 0 1 4.848-4.848z" data-name="Shape" transform="translate(5.307)"/>
            <path id="Shape-12" d="M3.4 70.314h67.2a2.4 2.4 0 0 0 2.147-3.475l-1.2-2.4a2.387 2.387 0 0 0-2.147-1.314H58.6V31.752a3.575 3.575 0 0 0 0-6.752v-6.207a1.2 1.2 0 0 0-2.4 0v5.991h-3.515a1.2 1.2 0 0 1-1-.533l-5.674-8.5a6.726 6.726 0 0 0-8.363-2.4 3.578 3.578 0 0 0-2.356-2.848l-6.805-2.36a3.616 3.616 0 0 0-4.587 2.232l-1.182 3.392a1.2 1.2 0 0 0-.785 2.262l-1.572 4.53a1.2 1.2 0 0 0-.785 2.261c-1.162 3.349-1.546 3.991-1.32 5.222a3.593 3.593 0 0 0-.214 6.933C26.172 37.8 26.6 38.168 28.1 37.7l-1.079 7.6c-.12.824.385.193-8.754 12.492a4.787 4.787 0 0 0-.324 5.337H4.6a2.388 2.388 0 0 0-2.147 1.318l-1.2 2.4A2.4 2.4 0 0 0 3.4 70.314zm46.088-7.189a5.127 5.127 0 0 0 .712-2.6v-11.9a7.166 7.166 0 0 0-1.814-4.773l-7.172-8.06a1.169 1.169 0 0 1-.232-1.166l2.2-6.574 1.01 1.411a6.014 6.014 0 0 0 4.882 2.508H56.2v31.154zm-10.8-47.616a4.339 4.339 0 0 1 5.324 1.577l5.671 8.494a3.6 3.6 0 0 0 3 1.6H57.4a1.2 1.2 0 1 1 0 2.4h-8.33a3.61 3.61 0 0 1-2.929-1.5l-4.56-6.38a1.2 1.2 0 1 0-1.951 1.392l1.829 2.558-2.746 8.223a3.562 3.562 0 0 0 .72 3.529l7.167 8.044a4.769 4.769 0 0 1 1.2 3.181v11.9a2.552 2.552 0 0 1-2.222 2.6A2.4 2.4 0 0 1 43 60.728V53.18a7.242 7.242 0 0 0-1.553-4.452l-9.206-10.294a5.946 5.946 0 0 1-1-5.347c4.51-14.211 4.56-13.413 4.579-13.533.55-1.624.9-3.189 2.874-4.045zm-7.066 8.944l-8.992-3.115 1.57-4.527 8.958 3.107zm-5.456-13.3a1.214 1.214 0 0 1 1.531-.744L34.5 12.77a1.2 1.2 0 0 1 .734 1.519l-.6 1.741a7.119 7.119 0 0 0-.66 1.479c-.062.2.942.479-8.986-2.961zm.47 24.247l-7.8-2.695a1.3 1.3 0 0 1-.916-1.456 1.224 1.224 0 0 1 1.566-.858c1.225.425 1.3.486 1.666.446 3.7 1.518 3.587 1.511 3.916 1.511a1.2 1.2 0 0 0 .457-2.306c-5.43-2.23-4.267-1.767-4.588-1.852a1.149 1.149 0 0 1-.27-1.2l1.176-3.39 9.007 3.115c-.448 1.324-2.23 6.627-2.684 7.949a1.2 1.2 0 0 1-1.525.738zM20.2 59.216l8.32-11.428c.948-1.274.851-1.917 1.726-8.043.281.389-.636-.658 4.609 5.207l-.614 3.514c-.137.815.353.037-10.133 13.551a2.429 2.429 0 0 1-4.414-1 2.457 2.457 0 0 1 .506-1.806zm15.48-8.242a7.277 7.277 0 0 0 1.211-3.744l2.709 3.028a4.734 4.734 0 0 1 1 2.922v7.548a4.737 4.737 0 0 0 .665 2.4H26.289zM3.4 67.917l1.2-2.4h64.8l1.2 2.4z" data-name="Shape" transform="translate(-.997 1.686)"/>
        </g>
    </g>
</svg>
