<svg xmlns="http://www.w3.org/2000/svg" width="67" height="72" viewBox="0 0 67 72">
    <defs>
        <style>
            .cls-1{fill:#fec9a3}.cls-2{fill:#feb784}.cls-3{fill:#f37935}.cls-4{fill:#fec093}.cls-5{fill:#ffb531}.cls-6{fill:#e0e0de}.cls-7{fill:#d6d6d4}.cls-8{fill:#c7c7c5}.cls-9{fill:#4db7e5}.cls-10{fill:#48add9}.cls-11{fill:#ffa912}
        </style>
    </defs>
    <g id="man_3_" data-name="man(3)" transform="translate(-32 -16)">
        <g id="Filled_outline" data-name="Filled outline" transform="translate(32 16)">
            <path id="Path_339" d="M98.229 251.348V236.9l4.065 4.092a5.138 5.138 0 0 0 7.847-.654 5.222 5.222 0 0 0-.407-6.543l-9.755-10.64a7.04 7.04 0 0 0-4.31-2.231l-7.008-.882V208H76.7v12.041l-6.1.768a9.546 9.546 0 0 0-5.843 3.025l-15.443 16.479a4.87 4.87 0 0 0-1.314 3.33v.807a4.852 4.852 0 0 0 3.029 4.505 4.8 4.8 0 0 0 5.2-1.074L67.135 236.9v14.449z" class="cls-1" data-name="Path 339" transform="translate(-45.592 -179.348)"/>
            <path id="Path_340" d="M252.041 217.009V208H240v9.009a10.831 10.831 0 0 0 12.041 0z" class="cls-2" data-name="Path 340" transform="translate(-208.937 -179.217)"/>
            <path id="Path_341" d="M163.271 301.075l-7.044 7.827-2.345-2.345v14.449h-31.306v-14.45l-2.345 2.345-7.121-7.912 7.077-7.5a9.629 9.629 0 0 1 5.884-3.024L129.8 290a8.128 8.128 0 0 0 8.128 8.128h.6a8.128 8.128 0 0 0 8.13-8.128l4.648.581a7.11 7.11 0 0 1 4.339 2.231z" class="cls-3" data-name="Path 341" transform="translate(-101.333 -249.006)"/>
            <path id="Path_342" d="M229.674 65.633V76.47a10.837 10.837 0 0 1-21.674 0V65.633A9.633 9.633 0 0 1 217.633 56h2.408a9.633 9.633 0 0 1 9.633 9.633z" class="cls-1" data-name="Path 342" transform="translate(-181.759 -49.979)"/>
            <path id="Path_343" d="M273.847 65.633V76.47A10.843 10.843 0 0 1 260 86.882a10.841 10.841 0 0 0 7.827-10.412V64.429a10.8 10.8 0 0 0-3.174-7.663A10.546 10.546 0 0 0 263.8 56h.414a9.633 9.633 0 0 1 9.633 9.633z" class="cls-4" data-name="Path 343" transform="translate(-225.959 -49.979)"/>
            <path id="Path_344" d="M229.674 65.633V67.8a9.175 9.175 0 0 1-4.111-4.111l-.706-1.41a15.817 15.817 0 0 1-1.4 1.535 16.032 16.032 0 0 1-11.125 4.486H208v-2.67a9.633 9.633 0 0 1 9.633-9.63h2.408a9.633 9.633 0 0 1 9.633 9.633z" class="cls-4" data-name="Path 344" transform="translate(-181.759 -49.979)"/>
            <path id="Path_345" d="M229.674 65.633v1.2a9.187 9.187 0 0 1-5.315-4.61l-.706-1.41a15.817 15.817 0 0 1-1.4 1.535 16 16 0 0 1-10.856 4.482H208v-1.2a9.633 9.633 0 0 1 9.633-9.63h2.408a9.633 9.633 0 0 1 9.633 9.633z" class="cls-5" data-name="Path 345" transform="translate(-181.759 -49.979)"/>
            <path id="Path_346" d="M96.857 314.408v21.674a2.408 2.408 0 0 1-2.408 2.408H82.408A2.408 2.408 0 0 1 80 336.082v-21.674A2.408 2.408 0 0 1 82.408 312h12.041a2.407 2.407 0 0 1 2.408 2.408z" class="cls-6" data-name="Path 346" transform="translate(-72.775 -267.694)"/>
            <path id="Path_347" d="M96.857 316.26v21.674a2.408 2.408 0 0 1-2.408 2.408H82.408A2.408 2.408 0 0 1 80 337.934v-1.651a52.765 52.765 0 0 0 15.664-22.1 2.408 2.408 0 0 1 1.193 2.077z" class="cls-7" data-name="Path 347" transform="translate(-72.775 -269.546)"/>
            <circle id="Ellipse_8" cx="5" cy="5" r="5" class="cls-8" data-name="Ellipse 8" transform="translate(10.917 57.754)"/>
            <rect id="Rectangle_14" width="10" height="7" class="cls-9" data-name="Rectangle 14" rx="3.5" transform="translate(10.917 47.819)"/>
            <path id="Path_348" d="M112.429 336H105.2a1.2 1.2 0 0 0-1.2 1.2v2.408a1.2 1.2 0 0 1 1.2-1.2h7.225a1.2 1.2 0 0 1 1.2 1.2V337.2a1.2 1.2 0 0 0-1.196-1.2z" class="cls-10" data-name="Path 348" transform="translate(-93.244 -288.009)"/>
            <path id="Path_349" d="M48.429 420.041H40V408h8.429a2.408 2.408 0 0 1 2.408 2.408v7.225a2.408 2.408 0 0 1-2.408 2.408z" class="cls-1" data-name="Path 349" transform="translate(-38.796 -349.245)"/>
            <path id="Path_350" d="M68.816 408H64a2.408 2.408 0 0 1 2.408 2.408v7.225A2.408 2.408 0 0 1 64 420.041h4.816a2.408 2.408 0 0 0 2.408-2.408v-7.225A2.408 2.408 0 0 0 68.816 408z" class="cls-4" data-name="Path 350" transform="translate(-59.184 -349.245)"/>
            <path id="Path_351" d="M162.408 120h4.816v10.837h-4.816a2.408 2.408 0 0 1-2.408-2.408v-6.021a2.408 2.408 0 0 1 2.408-2.408z" class="cls-6" data-name="Path 351" transform="translate(-140.872 -104.409)"/>
            <path id="Path_352" d="M160 151.985v3.615a2.408 2.408 0 0 0 2.408 2.408h4.816v-3.615h-4.816a2.408 2.408 0 0 1-2.408-2.408z" class="cls-7" data-name="Path 352" transform="translate(-140.872 -131.594)"/>
            <path id="Path_353" d="M352 120h4.816a2.408 2.408 0 0 1 2.408 2.408v6.021a2.408 2.408 0 0 1-2.408 2.408H352z" class="cls-6" data-name="Path 353" transform="translate(-304.181 -104.409)"/>
            <path id="Path_354" d="M356.816 154.408H352v3.612h4.816a2.408 2.408 0 0 0 2.408-2.408V152a2.408 2.408 0 0 1-2.408 2.408z" class="cls-7" data-name="Path 354" transform="translate(-304.181 -131.606)"/>
            <path id="Path_355" d="M207.307 38.449h-4.817a9.629 9.629 0 0 0-9.633-9.633h-2.408a9.618 9.618 0 0 0-6.812 2.821c-.084.084-.167.17-.248.259a9.6 9.6 0 0 0-2.572 6.553H176A14.447 14.447 0 0 1 190.451 24h2.406a14.452 14.452 0 0 1 14.449 14.446z" class="cls-7" data-name="Path 355" transform="translate(-154.585 -22.796)"/>
            <path id="Path_356" d="M288.5 65.633v1.2a9.187 9.187 0 0 1-5.315-4.61l-.706-1.41a15.81 15.81 0 0 1-1.4 1.535 10.816 10.816 0 0 0-2.976-5.586 10.548 10.548 0 0 0-.853-.762h1.618a9.633 9.633 0 0 1 9.632 9.633z" class="cls-11" data-name="Path 356" transform="translate(-240.62 -49.979)"/>
            <path id="Path_357" d="M244.117 309.187l-7.044 7.827-2.345-2.345v14.449H208.28a49.945 49.945 0 0 0 26.471-29.568 7.11 7.11 0 0 1 1.74 1.374z" class="cls-3" data-name="Path 357" transform="translate(-182.179 -257.118)"/>
            <path id="Path_358" d="M385.478 141.046l-7.025-24.584v-13.245L374.7 97a2.416 2.416 0 0 0-3.272-.63 2.222 2.222 0 0 0-.8 2.9l2.765 5.142-1.6 6.208a18.126 18.126 0 0 0-.571 4.513 18.12 18.12 0 0 0 .191 2.626l3.758 25.671a5.258 5.258 0 0 0 9.835 1.507l.113-.221a5 5 0 0 0 .359-3.67z" class="cls-1" data-name="Path 358" transform="translate(-319.883 -84.198)"/>
            <path id="Path_359" d="M258.241 194.13H256v2.408h2.241a11.261 11.261 0 0 0 5.59-1.368l-1.213-2.08a8.965 8.965 0 0 1-4.377 1.04z" data-name="Path 359" transform="translate(-222.529 -166.531)"/>
            <circle id="Ellipse_9" cx="2" cy="2" r="2" data-name="Ellipse 9" transform="translate(29.796 18.931)"/>
            <circle id="Ellipse_10" cx="2" cy="2" r="2" data-name="Ellipse 10" transform="translate(40.721 18.931)"/>
            <path id="Path_360" d="M112.429 336H105.2a1.2 1.2 0 0 0-1.2 1.2v4.816a1.2 1.2 0 0 0 1.2 1.2h7.225a1.2 1.2 0 0 0 1.2-1.2V337.2a1.2 1.2 0 0 0-1.196-1.2zm-1.2 4.816h-4.816v-2.408h4.816z" data-name="Path 360" transform="translate(-93.244 -288.018)"/>
            <path id="Path_361" d="M42.41 146.837a2.409 2.409 0 0 0 2.4-2.265l1.027-6.164h4.783l-.607 3.645a2.407 2.407 0 1 0 2.022 2.519l1.195-7.17a1.2 1.2 0 0 0-1.188-1.4h-7.224a1.2 1.2 0 0 0-1.188 1.006l-.841 5.047a2.407 2.407 0 1 0-.379 4.783z" data-name="Path 361" transform="translate(-38.797 -118.011)"/>
            <path id="Path_362" d="M98.754 72.567L91.82 48.232V35.2a1.2 1.2 0 0 0-.172-.62l-3.725-6.192q-.019-.032-.041-.063a3.563 3.563 0 0 0-2.8-1.517A15.558 15.558 0 0 0 70.285 16h-2.393a15.573 15.573 0 0 0-15.52 14.594A3.6 3.6 0 0 0 49.946 34v6a3.6 3.6 0 0 0 3.589 3.6v9a1.795 1.795 0 1 1-3.589 0v-2.4a4.187 4.187 0 1 0-8.375 0v9a3.6 3.6 0 0 0-3.589 3.6v10.047l-.708.753H33.2a1.2 1.2 0 0 0-1.2 1.2v12a1.2 1.2 0 0 0 1.2 1.2h20.335a3.6 3.6 0 0 0 3.589-3.6V62.8a3.605 3.605 0 0 0-2.349-3.378 8.345 8.345 0 0 1 2.381-.666l2.458-.308A9.3 9.3 0 0 0 68.79 66.4h.6a9.3 9.3 0 0 0 9.175-7.953l3.37.422a5.9 5.9 0 0 1 1.918.589l1.992 13.648-.354-.356a1.2 1.2 0 0 0-2.042.849V88h2.393V76.5l1.078 1.082a6.44 6.44 0 0 0 11.291-.244l.112-.221a6.183 6.183 0 0 0 .431-4.55zM83.133 41.2h-2.08v-8.4h1.257l2.013 3.755zM82.8 27.515a3.428 3.428 0 0 0-1.388 2.885h-.428a10.779 10.779 0 0 0-2.848-6.179l1.7-1.7a12.958 12.958 0 0 1 2.965 5zM69.089 52a9.6 9.6 0 0 1-9.571-9.6V34h1.911a17.013 17.013 0 0 0 12.167-5.082 10.258 10.258 0 0 0 5.065 4.706V42.4a9.6 9.6 0 0 1-9.572 9.6zm-1.2-28.8h2.393a8.4 8.4 0 0 1 8.345 7.717 7.9 7.9 0 0 1-2.985-3.247l-.7-1.406a1.195 1.195 0 0 0-2-.213 14.656 14.656 0 0 1-8.4 5.22 8.5 8.5 0 0 1 3.948-4.628l-1.19-2.084a10.8 10.8 0 0 0-5.163 6.377l-.184.655c-.174.006-.349.01-.523.01h-1.913a8.4 8.4 0 0 1 8.375-8.401zm2.393-4.8a13.067 13.067 0 0 1 7.75 2.529l-1.721 1.727a10.684 10.684 0 0 0-6.026-1.856h-2.393a10.683 10.683 0 0 0-6.029 1.856l-1.722-1.727a13.068 13.068 0 0 1 7.75-2.529zm-11.939 4.119l1.7 1.7a10.779 10.779 0 0 0-2.85 6.181h-2.406a13.214 13.214 0 0 1 3.556-7.881zM52.339 40v-6a1.2 1.2 0 0 1 1.2-1.2h3.589v8.4h-3.593a1.2 1.2 0 0 1-1.2-1.2zM34.393 85.6V76h7.178a1.2 1.2 0 0 1 1.2 1.2v7.2a1.2 1.2 0 0 1-1.2 1.2zm20.339-1.2a1.2 1.2 0 0 1-1.2 1.2h-8.577a3.593 3.593 0 0 0 .206-1.2v-1.845a4.795 4.795 0 1 0-.852-7.679 3.578 3.578 0 0 0-2.738-1.276h-1.2V62.8a1.2 1.2 0 0 1 1.2-1.2h11.964a1.2 1.2 0 0 1 1.2 1.2zM47.553 76a2.4 2.4 0 1 1-2.393 2.4 2.4 2.4 0 0 1 2.393-2.4zm9.306-19.626a10.7 10.7 0 0 0-5.927 2.743l.076.083h-7.044v-9a1.795 1.795 0 1 1 3.589 0v2.4a4.187 4.187 0 1 0 8.375 0v-9h1.256a12.008 12.008 0 0 0 4.726 8.393v3.747zM69.388 64h-.6a6.9 6.9 0 0 1-6.8-5.85l1.265-.159A1.2 1.2 0 0 0 64.3 56.8v-3.4a11.9 11.9 0 0 0 9.571 0v3.4a1.2 1.2 0 0 0 1.048 1.191l1.265.158A6.9 6.9 0 0 1 69.388 64zm12.842-7.512l-5.962-.748v-3.747a12.008 12.008 0 0 0 4.725-8.393h1.575a19.268 19.268 0 0 0-.116 6.275l1 6.866a8.209 8.209 0 0 0-1.223-.253zM96.19 76.02l-.112.221A3.983 3.983 0 0 1 92.5 78.4a3.937 3.937 0 0 1-3.946-3.288l-3.735-25.584a16.914 16.914 0 0 1 .352-6.642l1.586-6.186a1.2 1.2 0 0 0-.1-.867l-2.743-5.115a1.013 1.013 0 0 1 .384-1.326 1.213 1.213 0 0 1 1.6.276l3.531 5.868V48.4a1.2 1.2 0 0 0 .046.33l6.98 24.5v.006a3.786 3.786 0 0 1-.266 2.785z" data-name="Path 362" transform="translate(-32 -16)"/>
        </g>
    </g>
</svg>
