<svg xmlns="http://www.w3.org/2000/svg" width="40.311" height="43.319" viewBox="0 0 40.311 43.319">
    <defs>
        <style>
            .cls-1{fill:#fec9a3}.cls-2{fill:#feb784}.cls-3{fill:#a12e71}.cls-4{fill:#fec093}.cls-5{fill:#ffb531}.cls-6{fill:#e0e0de}.cls-7{fill:#d6d6d4}.cls-8{fill:#c7c7c5}.cls-9{fill:#4db7e5}.cls-10{fill:#48add9}.cls-11{fill:#ffa912}
        </style>
    </defs>
    <g id="man_3_" data-name="man(3)">
        <g id="Filled_outline" data-name="Filled outline">
            <path id="Path_339" d="M78.22 234.08v-8.693l2.445 2.462a3.091 3.091 0 0 0 4.721-.393 3.142 3.142 0 0 0-.245-3.937l-5.869-6.4a4.236 4.236 0 0 0-2.593-1.342l-4.216-.531V208h-7.2v7.244l-3.668.462a5.743 5.743 0 0 0-3.516 1.82l-9.294 9.914a2.93 2.93 0 0 0-.791 2v.486a2.919 2.919 0 0 0 1.823 2.71 2.885 2.885 0 0 0 3.127-.646l6.563-6.608v8.693z" class="cls-1" data-name="Path 339" transform="translate(-46.551 -190.761)"/>
            <path id="Path_340" d="M247.244 213.42V208H240v5.42a6.517 6.517 0 0 0 7.244 0z" class="cls-2" data-name="Path 340" transform="translate(-221.311 -190.683)"/>
            <path id="Path_341" d="M143.289 296.663l-4.238 4.709-1.411-1.411v8.693h-18.835v-8.693l-1.411 1.411-4.284-4.76 4.258-4.511a5.793 5.793 0 0 1 3.54-1.819l2.244-.281a4.89 4.89 0 0 0 4.89 4.89h.362a4.89 4.89 0 0 0 4.89-4.89l2.8.35a4.278 4.278 0 0 1 2.611 1.342z" class="cls-3" data-name="Path 341" transform="translate(-106.024 -265.336)"/>
            <path id="Path_342" d="M221.04 61.8v6.52a6.52 6.52 0 1 1-13.04 0V61.8a5.8 5.8 0 0 1 5.8-5.8h1.449a5.8 5.8 0 0 1 5.791 5.8z" class="cls-1" data-name="Path 342" transform="translate(-192.212 -52.378)"/>
            <path id="Path_343" d="M268.331 61.8v6.52A6.524 6.524 0 0 1 260 74.58a6.523 6.523 0 0 0 4.709-6.265v-7.244a6.5 6.5 0 0 0-1.91-4.61 6.353 6.353 0 0 0-.513-.461h.249a5.8 5.8 0 0 1 5.796 5.8z" class="cls-4" data-name="Path 343" transform="translate(-239.519 -52.378)"/>
            <path id="Path_344" d="M221.04 61.8v1.3a5.52 5.52 0 0 1-2.473-2.473l-.425-.849a9.52 9.52 0 0 1-.844.924 9.646 9.646 0 0 1-6.692 2.7H208V61.8a5.8 5.8 0 0 1 5.8-5.8h1.449a5.8 5.8 0 0 1 5.791 5.8z" class="cls-4" data-name="Path 344" transform="translate(-192.212 -52.378)"/>
            <path id="Path_345" d="M221.04 61.8v.724a5.527 5.527 0 0 1-3.2-2.774l-.425-.849a9.511 9.511 0 0 1-.844.924 9.628 9.628 0 0 1-6.532 2.7H208V61.8a5.8 5.8 0 0 1 5.8-5.8h1.449a5.8 5.8 0 0 1 5.791 5.8z" class="cls-5" data-name="Path 345" transform="translate(-192.212 -52.378)"/>
            <path id="Path_346" d="M90.142 313.449v13.04a1.449 1.449 0 0 1-1.449 1.449h-7.244A1.449 1.449 0 0 1 80 326.489v-13.04A1.449 1.449 0 0 1 81.449 312h7.244a1.448 1.448 0 0 1 1.449 1.449z" class="cls-6" data-name="Path 346" transform="translate(-75.653 -285.344)"/>
            <path id="Path_347" d="M90.142 315.431v13.04a1.449 1.449 0 0 1-1.449 1.449h-7.244A1.449 1.449 0 0 1 80 328.471v-.993a31.746 31.746 0 0 0 9.424-13.3 1.449 1.449 0 0 1 .718 1.253z" class="cls-7" data-name="Path 347" transform="translate(-75.653 -287.326)"/>
            <circle id="Ellipse_8" cx="3.008" cy="3.008" r="3.008" class="cls-8" data-name="Ellipse 8" transform="translate(6.568 34.747)"/>
            <rect id="Rectangle_14" width="6.016" height="4.212" class="cls-9" data-name="Rectangle 14" rx="2.106" transform="translate(6.568 28.77)"/>
            <path id="Path_348" d="M109.071 336h-4.347a.724.724 0 0 0-.724.724v1.449a.724.724 0 0 1 .724-.724h4.347a.724.724 0 0 1 .724.724v-1.449a.724.724 0 0 0-.724-.724z" class="cls-10" data-name="Path 348" transform="translate(-97.529 -307.126)"/>
            <path id="Path_349" d="M45.071 415.244H40V408h5.071a1.449 1.449 0 0 1 1.449 1.449v4.351a1.449 1.449 0 0 1-1.449 1.444z" class="cls-1" data-name="Path 349" transform="translate(-39.276 -372.65)"/>
            <path id="Path_350" d="M66.9 408H64a1.449 1.449 0 0 1 1.449 1.449v4.351A1.449 1.449 0 0 1 64 415.244h2.9a1.449 1.449 0 0 0 1.449-1.449v-4.347A1.449 1.449 0 0 0 66.9 408z" class="cls-4" data-name="Path 350" transform="translate(-61.102 -372.65)"/>
            <path id="Path_351" d="M161.449 120h2.9v6.52h-2.9a1.449 1.449 0 0 1-1.449-1.449v-3.622a1.449 1.449 0 0 1 1.449-1.449z" class="cls-6" data-name="Path 351" transform="translate(-148.492 -110.62)"/>
            <path id="Path_352" d="M160 151.985v2.175a1.449 1.449 0 0 0 1.449 1.449h2.9v-2.175h-2.9a1.449 1.449 0 0 1-1.449-1.449z" class="cls-7" data-name="Path 352" transform="translate(-148.492 -139.717)"/>
            <path id="Path_353" d="M352 120h2.9a1.449 1.449 0 0 1 1.449 1.449v3.622a1.449 1.449 0 0 1-1.449 1.449H352z" class="cls-6" data-name="Path 353" transform="translate(-323.23 -110.62)"/>
            <path id="Path_354" d="M354.9 153.449H352v2.173h2.9a1.449 1.449 0 0 0 1.449-1.449V152a1.449 1.449 0 0 1-1.449 1.449z" class="cls-7" data-name="Path 354" transform="translate(-323.23 -139.73)"/>
            <path id="Path_355" d="M194.835 32.693h-2.9a5.793 5.793 0 0 0-5.8-5.8h-1.449a5.786 5.786 0 0 0-4.1 1.7c-.051.051-.1.1-.149.156a5.773 5.773 0 0 0-1.548 3.943H176A8.692 8.692 0 0 1 184.695 24h1.448a8.7 8.7 0 0 1 8.693 8.691z" class="cls-7" data-name="Path 355" transform="translate(-163.116 -23.276)"/>
            <path id="Path_356" d="M284.019 61.8v.724a5.527 5.527 0 0 1-3.2-2.774l-.419-.85a9.512 9.512 0 0 1-.844.924 6.507 6.507 0 0 0-1.79-3.361 6.349 6.349 0 0 0-.516-.463h.973a5.8 5.8 0 0 1 5.796 5.8z" class="cls-11" data-name="Path 356" transform="translate(-255.212 -52.378)"/>
            <path id="Path_357" d="M229.841 305.348l-4.238 4.709-1.411-1.411v8.693H208.28a30.049 30.049 0 0 0 15.926-17.79 4.278 4.278 0 0 1 1.047.827z" class="cls-3" data-name="Path 357" transform="translate(-192.576 -274.021)"/>
            <path id="Path_358" d="M379.465 123.1l-4.227-14.791v-7.969l-2.256-3.74a1.454 1.454 0 0 0-1.969-.379 1.337 1.337 0 0 0-.482 1.748l1.663 3.094-.96 3.735a10.907 10.907 0 0 0-.344 2.715 10.9 10.9 0 0 0 .115 1.58l2.261 15.445a3.163 3.163 0 0 0 5.917.907l.068-.133a3.008 3.008 0 0 0 .214-2.212z" class="cls-1" data-name="Path 358" transform="translate(-339.999 -88.896)"/>
            <path id="Path_359" d="M257.348 193.716H256v1.449h1.348a6.775 6.775 0 0 0 3.363-.823l-.73-1.251a5.394 5.394 0 0 1-2.633.625z" data-name="Path 359" transform="translate(-235.862 -177.111)"/>
            <circle id="Ellipse_9" cx="1.203" cy="1.203" r="1.203" data-name="Ellipse 9" transform="translate(17.927 11.39)"/>
            <circle id="Ellipse_10" cx="1.203" cy="1.203" r="1.203" data-name="Ellipse 10" transform="translate(24.5 11.39)"/>
            <path id="Path_360" d="M109.071 336h-4.347a.724.724 0 0 0-.724.724v2.9a.724.724 0 0 0 .724.724h4.347a.724.724 0 0 0 .724-.724v-2.9a.724.724 0 0 0-.724-.724zm-.724 2.9h-2.9v-1.449h2.9z" data-name="Path 360" transform="translate(-97.529 -307.132)"/>
            <path id="Path_361" d="M41.45 142.52a1.45 1.45 0 0 0 1.445-1.363l.618-3.708h2.878l-.365 2.193a1.448 1.448 0 1 0 1.216 1.515l.719-4.314a.724.724 0 0 0-.715-.844H42.9a.724.724 0 0 0-.715.605l-.506 3.037a1.448 1.448 0 1 0-.228 2.878z" data-name="Path 361" transform="translate(-39.277 -125.177)"/>
            <path id="Path_362" d="M72.162 50.033l-4.171-14.641v-7.84a.724.724 0 0 0-.1-.373l-2.241-3.725-.024-.038a2.144 2.144 0 0 0-1.683-.913 9.36 9.36 0 0 0-8.9-6.5h-1.44a9.369 9.369 0 0 0-9.337 8.78A2.169 2.169 0 0 0 42.8 26.83v3.61a2.165 2.165 0 0 0 2.159 2.166v5.414a1.08 1.08 0 1 1-2.159 0v-1.444a2.519 2.519 0 1 0-5.039 0v5.415a2.165 2.165 0 0 0-2.161 2.166V50.2l-.426.453H32.72a.721.721 0 0 0-.72.722V58.6a.721.721 0 0 0 .72.722h12.237a2.165 2.165 0 0 0 2.159-2.166v-13a2.169 2.169 0 0 0-1.416-2.032 5.021 5.021 0 0 1 1.432-.4l1.479-.185a5.592 5.592 0 0 0 5.52 4.785h.36a5.592 5.592 0 0 0 5.52-4.785l2.027.254a3.548 3.548 0 0 1 1.154.354l1.2 8.211-.213-.214a.72.72 0 0 0-1.229.511v8.664h1.44V52.4l.649.651a3.875 3.875 0 0 0 6.793-.147l.068-.133a3.72 3.72 0 0 0 .262-2.738zm-9.4-18.872h-1.25v-5.053h.756l1.211 2.259zm-.2-8.234a2.063 2.063 0 0 0-.835 1.736h-.257a6.485 6.485 0 0 0-1.713-3.717l1.021-1.024a7.8 7.8 0 0 1 1.784 3.006zm-8.248 14.732a5.774 5.774 0 0 1-5.759-5.776V26.83h1.149a10.236 10.236 0 0 0 7.32-3.058 6.172 6.172 0 0 0 3.049 2.828v5.28a5.774 5.774 0 0 1-5.759 5.779zm-.72-17.327h1.44a5.051 5.051 0 0 1 5.021 4.643 4.751 4.751 0 0 1-1.8-1.954l-.422-.846a.719.719 0 0 0-1.206-.128 8.818 8.818 0 0 1-5.055 3.141 5.114 5.114 0 0 1 2.38-2.788l-.714-1.254a6.5 6.5 0 0 0-3.106 3.837l-.111.394c-.1 0-.21.006-.315.006h-1.15a5.052 5.052 0 0 1 5.038-5.051zm1.44-2.888a7.862 7.862 0 0 1 4.666 1.522L58.661 20a6.428 6.428 0 0 0-3.627-1.117h-1.44A6.427 6.427 0 0 0 49.967 20l-1.036-1.039a7.862 7.862 0 0 1 4.663-1.522zm-7.185 2.478l1.022 1.024a6.485 6.485 0 0 0-1.714 3.717H45.71a7.95 7.95 0 0 1 2.139-4.741zm-3.612 10.517V26.83a.722.722 0 0 1 .72-.722h2.159v5.054h-2.159a.722.722 0 0 1-.72-.723zM33.44 57.874V52.1h4.319a.722.722 0 0 1 .72.722v4.332a.722.722 0 0 1-.72.722zm12.237-.722a.722.722 0 0 1-.72.722h-5.163a2.162 2.162 0 0 0 .124-.722v-1.11a2.885 2.885 0 1 0-.512-4.62 2.153 2.153 0 0 0-1.647-.768h-.72v-6.5a.722.722 0 0 1 .72-.722h7.2a.722.722 0 0 1 .72.722zM41.358 52.1a1.444 1.444 0 1 1-1.44 1.444 1.442 1.442 0 0 1 1.44-1.444zm5.6-11.808a6.436 6.436 0 0 0-3.566 1.65l.046.05H39.2v-5.416a1.08 1.08 0 1 1 2.159 0v1.444a2.519 2.519 0 1 0 5.039 0v-5.415h.756A7.225 7.225 0 0 0 50 37.655v2.255zm7.538 4.588h-.36a4.149 4.149 0 0 1-4.091-3.52l.761-.1a.721.721 0 0 0 .63-.717V38.5a7.158 7.158 0 0 0 5.759 0v2.049a.721.721 0 0 0 .631.716l.761.1a4.149 4.149 0 0 1-4.093 3.514zm7.726-4.519l-3.587-.45v-2.256a7.225 7.225 0 0 0 2.843-5.05h.947a11.593 11.593 0 0 0-.07 3.775l.6 4.131a4.938 4.938 0 0 0-.735-.152zm8.4 11.752l-.068.133a2.4 2.4 0 0 1-2.152 1.3 2.369 2.369 0 0 1-2.374-1.978l-2.25-15.396a10.176 10.176 0 0 1 .212-4l.954-3.722a.724.724 0 0 0-.063-.522l-1.65-3.078a.61.61 0 0 1 .231-.8.73.73 0 0 1 .965.166l2.124 3.53v7.741a.725.725 0 0 0 .028.2l4.2 14.74a2.278 2.278 0 0 1-.16 1.684z" data-name="Path 362" transform="translate(-32 -16)"/>
        </g>
    </g>
</svg>
