<svg xmlns="http://www.w3.org/2000/svg" width="101.982" height="72" viewBox="0 0 101.982 72">
    <defs>
        <style>
            .cls-1{fill:#f2bb80}.cls-2{fill:#4398d1}.cls-3{fill:#3e8cc7}.cls-4{fill:#7259d9}.cls-5{fill:#e8a864}.cls-6{fill:#e5e5e5}.cls-7{fill:#3d8ac4}.cls-8{fill:#5a5b5b}
        </style>
    </defs>
    <g id="swimmer" transform="translate(0 -75.264)">
        <path id="SVGCleanerId_0" d="M377.24 83.8a10.306 10.306 0 0 1 10.307 10.3v8.589A10.306 10.306 0 0 1 377.24 113a10.306 10.306 0 0 1-10.307-10.307V94.1a10.306 10.306 0 0 1 10.307-10.3z" class="cls-1" transform="translate(-294.153 -6.815)"/>
        <path id="Path_363" d="M377.24 83.8a10.306 10.306 0 0 0-10.307 10.3v1.718h20.614V94.1a10.306 10.306 0 0 0-10.307-10.3z" class="cls-2" data-name="Path 363" transform="translate(-294.153 -6.815)"/>
        <path id="Path_364" d="M366.933 112.793h20.614v-1.718a10.311 10.311 0 0 0-1.958-6.03 57.655 57.655 0 0 1-18.656 6.373z" class="cls-3" data-name="Path 364" transform="translate(-294.153 -23.787)"/>
        <path id="Path_365" d="M31.105 88.951l-13.983 22.332-8.589 6.871 5.153 6.871 10.307-6.871 15.46-18.9 12.025 12.025-19.5 19.5a6.372 6.372 0 0 1 .6.258 19.236 19.236 0 0 0 17.178 0 19.138 19.138 0 0 1 17.178 0 19.236 19.236 0 0 0 17.178 0 19.187 19.187 0 0 1 9.311-1.993L47.734 86.7a10.858 10.858 0 0 0-7.4-2.9 10.908 10.908 0 0 0-9.229 5.151z" class="cls-1" data-name="Path 365" transform="translate(-6.815 -6.816)"/>
        <g id="Group_365" data-name="Group 365" transform="translate(72.78 76.982)">
            <path id="SVGCleanerId_0_1_" d="M377.24 83.8a10.306 10.306 0 0 1 10.307 10.3v8.589A10.306 10.306 0 0 1 377.24 113a10.306 10.306 0 0 1-10.307-10.307V94.1a10.306 10.306 0 0 1 10.307-10.3z" class="cls-1" transform="translate(-366.933 -83.797)"/>
        </g>
        <path id="Path_366" d="M377.24 83.8a10.306 10.306 0 0 0-10.307 10.3v1.718h20.614V94.1a10.306 10.306 0 0 0-10.307-10.3z" class="cls-4" data-name="Path 366" transform="translate(-294.153 -6.815)"/>
        <path id="Path_367" d="M366.933 112.793h20.614v-1.718a10.311 10.311 0 0 0-1.958-6.03 57.655 57.655 0 0 1-18.656 6.373z" class="cls-4" data-name="Path 367" transform="translate(-294.153 -23.787)"/>
        <path id="Path_368" d="M129.119 269.868l-4.02 4.02a6.371 6.371 0 0 1 .6.258 19.236 19.236 0 0 0 17.178 0 19.138 19.138 0 0 1 17.178 0 19.236 19.236 0 0 0 17.178 0 19.187 19.187 0 0 1 9.311-1.993L176.6 263a211.764 211.764 0 0 1-47.481 6.868z" class="cls-5" data-name="Path 368" transform="translate(-100.573 -150.427)"/>
        <path id="Path_369" d="M101.983 332.526a18.752 18.752 0 0 1-8.5-2.027 18.854 18.854 0 0 0-17 0 18.854 18.854 0 0 1-17 0 18.854 18.854 0 0 0-17 0 18.854 18.854 0 0 1-17 0 18.854 18.854 0 0 0-17 0A18.756 18.756 0 0 1 0 332.526v-20.065a18.751 18.751 0 0 0 8.5-2.027 18.854 18.854 0 0 1 17 0 18.854 18.854 0 0 0 17 0 18.854 18.854 0 0 1 17 0 18.854 18.854 0 0 0 17 0 18.854 18.854 0 0 1 17 0 18.751 18.751 0 0 0 8.5 2.027v20.064z" class="cls-2" data-name="Path 369" transform="translate(0 -186.98)"/>
        <path id="Path_370" d="M421.569 143.531H425a3.435 3.435 0 0 1 3.436 3.436A3.435 3.435 0 0 1 425 150.4h-3.436a3.435 3.435 0 0 1-3.436-3.436 3.435 3.435 0 0 1 3.441-3.433z" class="cls-6" data-name="Path 370" transform="translate(-335.046 -54.684)"/>
        <g id="Group_366" data-name="Group 366" transform="translate(0 119.723)">
            <path id="Path_371" d="M101.983 307.4a20.445 20.445 0 0 1-9.264-2.216 17.261 17.261 0 0 0-15.467 0 20.576 20.576 0 0 1-18.527 0 17.261 17.261 0 0 0-15.467 0 20.576 20.576 0 0 1-18.527 0 17.261 17.261 0 0 0-15.467 0A20.452 20.452 0 0 1 0 307.4v-3.436a17.246 17.246 0 0 0 7.734-1.838 20.576 20.576 0 0 1 18.527 0 17.261 17.261 0 0 0 15.467 0 20.576 20.576 0 0 1 18.527 0 17.261 17.261 0 0 0 15.467 0 20.576 20.576 0 0 1 18.527 0 17.245 17.245 0 0 0 7.734 1.838v3.436z" class="cls-7" data-name="Path 371" transform="translate(0 -299.925)"/>
            <path id="Path_372" d="M101.983 355.871a20.5 20.5 0 0 1-9.264-2.216 17.261 17.261 0 0 0-15.467 0 20.576 20.576 0 0 1-18.527 0 17.261 17.261 0 0 0-15.467 0 20.576 20.576 0 0 1-18.527 0 17.261 17.261 0 0 0-15.467 0A20.5 20.5 0 0 1 0 355.871v-3.436a17.246 17.246 0 0 0 7.734-1.835 20.576 20.576 0 0 1 18.527 0 17.261 17.261 0 0 0 15.467 0 20.576 20.576 0 0 1 18.527 0 17.261 17.261 0 0 0 15.467 0 20.576 20.576 0 0 1 18.527 0 17.246 17.246 0 0 0 7.734 1.838v3.436z" class="cls-7" data-name="Path 372" transform="translate(0 -338.637)"/>
            <path id="Path_373" d="M101.983 407.071a20.5 20.5 0 0 1-9.264-2.216 17.261 17.261 0 0 0-15.467 0 20.576 20.576 0 0 1-18.527 0 17.261 17.261 0 0 0-15.467 0 20.576 20.576 0 0 1-18.527 0 17.261 17.261 0 0 0-15.467 0A20.5 20.5 0 0 1 0 407.071v-3.436a17.246 17.246 0 0 0 7.734-1.835 20.576 20.576 0 0 1 18.527 0 17.261 17.261 0 0 0 15.467 0 20.576 20.576 0 0 1 18.527 0 17.261 17.261 0 0 0 15.467 0 20.576 20.576 0 0 1 18.527 0 17.246 17.246 0 0 0 7.734 1.838v3.436z" class="cls-7" data-name="Path 373" transform="translate(0 -379.53)"/>
        </g>
        <g id="Group_367" data-name="Group 367" transform="translate(72.78 87.141)">
            <path id="Rectangle_15" d="M0 0h20.614v3.436H0z" class="cls-8" data-name="Rectangle 15"/>
            <path id="Path_374" d="M418.189 145.3h-3.436a5.153 5.153 0 1 1 0-10.307h3.436a5.153 5.153 0 1 1 0 10.307zm-3.436-6.871a1.718 1.718 0 0 0 0 3.436h3.436a1.718 1.718 0 0 0 0-3.436z" class="cls-8" data-name="Path 374" transform="translate(-401.011 -134.997)"/>
        </g>
        <path id="Path_375" d="M85.988 120.81l.153-.155-44.5-41.692a12.366 12.366 0 0 0-17.607.649 12.7 12.7 0 0 0-1.446 1.91l-13.6 22.126-8.342 6.615a1.73 1.73 0 0 0-.306 2.371l5.1 6.871a1.688 1.688 0 0 0 2.295.4l10.2-6.871a1.179 1.179 0 0 0 .374-.344l14.105-17.424 9.382 9.465L24.51 122.2a20.575 20.575 0 0 0-16.776.756A17.246 17.246 0 0 1 0 124.8v3.436a20.446 20.446 0 0 0 9.263-2.216 17.261 17.261 0 0 1 15.467 0 20.576 20.576 0 0 0 18.527 0 17.261 17.261 0 0 1 15.467 0 20.576 20.576 0 0 0 18.527 0 17.261 17.261 0 0 1 15.467 0 20.446 20.446 0 0 0 9.263 2.216V124.8a17.246 17.246 0 0 1-7.734-1.838 20.342 20.342 0 0 0-8.259-2.152zm-10.2 2.147a17.261 17.261 0 0 1-15.467 0 20.576 20.576 0 0 0-18.527 0 17.149 17.149 0 0 1-13.853.687l17.524-17.694a1.73 1.73 0 0 0 .01-2.429l-.01-.01-11.9-12.025a1.685 1.685 0 0 0-2.4.012c-.039.039-.076.083-.112.125l-15.212 18.69-8.651 5.825-3.145-4.226 7.207-5.841a1.54 1.54 0 0 0 .391-.429L25.479 83.31a8.985 8.985 0 0 1 13.853-1.855l42.255 39.613a20.544 20.544 0 0 0-5.864 1.89h.068z" data-name="Path 375" transform="translate(0 -.264)"/>
        <path id="Path_376" d="M75.723 350.6a17.261 17.261 0 0 1-15.467 0 20.576 20.576 0 0 0-18.527 0 17.261 17.261 0 0 1-15.467 0 20.576 20.576 0 0 0-18.527 0A17.246 17.246 0 0 1 0 352.436v3.436a20.5 20.5 0 0 0 9.263-2.216 17.261 17.261 0 0 1 15.467 0 20.576 20.576 0 0 0 18.527 0 17.261 17.261 0 0 1 15.467 0 20.576 20.576 0 0 0 18.527 0 17.261 17.261 0 0 1 15.467 0 20.5 20.5 0 0 0 9.264 2.216v-3.436a17.246 17.246 0 0 1-7.732-1.836 20.577 20.577 0 0 0-18.527 0z" data-name="Path 376" transform="translate(-.001 -218.915)"/>
        <path id="Path_377" d="M75.723 401.8a17.261 17.261 0 0 1-15.467 0 20.576 20.576 0 0 0-18.527 0 17.261 17.261 0 0 1-15.467 0 20.576 20.576 0 0 0-18.527 0A17.246 17.246 0 0 1 0 403.636v3.436a20.5 20.5 0 0 0 9.263-2.216 17.261 17.261 0 0 1 15.467 0 20.576 20.576 0 0 0 18.527 0 17.261 17.261 0 0 1 15.467 0 20.576 20.576 0 0 0 18.527 0 17.261 17.261 0 0 1 15.467 0 20.5 20.5 0 0 0 9.264 2.216v-3.436a17.246 17.246 0 0 1-7.732-1.836 20.576 20.576 0 0 0-18.527 0z" data-name="Path 377" transform="translate(-.001 -259.808)"/>
        <path id="Path_378" d="M370.425 107.9a12.025 12.025 0 0 0 12.025-12.025v-8.586a12.025 12.025 0 0 0-24.049 0v8.589a12.025 12.025 0 0 0 12.024 12.022zm3.436-17.178h3.439a1.718 1.718 0 0 1 0 3.436h-3.44a1.718 1.718 0 0 1 0-3.436zM370.425 78.7a8.59 8.59 0 0 1 8.589 8.589h-17.178a8.59 8.59 0 0 1 8.589-8.589zm-8.589 12.025h7.18a5.155 5.155 0 0 0 4.844 6.875h3.44a4.754 4.754 0 0 0 1.563-.275 8.589 8.589 0 0 1-17.024-1.443z" data-name="Path 378" transform="translate(-287.338)"/>
    </g>
</svg>
