<svg xmlns="http://www.w3.org/2000/svg" width="61.357" height="43.318" viewBox="0 0 61.357 43.318">
    <defs>
        <style>
            .cls-1{fill:#f2bb80}.cls-2{fill:#4398d1}.cls-3{fill:#3e8cc7}.cls-4{fill:#d14842}.cls-5{fill:none}.cls-6{fill:#e8a864}.cls-7{fill:#e5e5e5}.cls-8{fill:#3d8ac4}.cls-9{fill:#5a5b5b}
        </style>
    </defs>
    <g id="swimmer">
        <path id="SVGCleanerId_0" d="M373.134 83.8a6.2 6.2 0 0 1 6.2 6.2v5.168a6.2 6.2 0 0 1-6.2 6.2 6.2 6.2 0 0 1-6.2-6.2V90a6.2 6.2 0 0 1 6.2-6.2z" class="cls-1" transform="translate(-323.145 -82.764)"/>
        <path id="Path_363" d="M373.134 83.8a6.2 6.2 0 0 0-6.2 6.2v1.033h12.4V90a6.2 6.2 0 0 0-6.2-6.2z" class="cls-2" data-name="Path 363" transform="translate(-323.145 -82.764)"/>
        <path id="Path_364" d="M366.933 109.707h12.4v-1.033a6.2 6.2 0 0 0-1.178-3.628 34.688 34.688 0 0 1-11.224 3.834z" class="cls-3" data-name="Path 364" transform="translate(-323.145 -101.439)"/>
        <path id="Path_365" d="M22.113 86.9L13.7 100.334l-5.168 4.134 3.1 4.134 6.2-4.134 9.3-11.369 7.235 7.235-11.73 11.73a3.834 3.834 0 0 1 .362.155 11.573 11.573 0 0 0 10.335 0 11.514 11.514 0 0 1 10.335 0 11.573 11.573 0 0 0 10.335 0 11.544 11.544 0 0 1 5.6-1.2L32.118 85.545a6.532 6.532 0 0 0-4.455-1.745 6.562 6.562 0 0 0-5.55 3.1z" class="cls-1" data-name="Path 365" transform="translate(-7.5 -82.764)"/>
        <g id="Group_365" data-name="Group 365" transform="translate(43.788 1.033)">
            <path id="SVGCleanerId_0_1_" d="M373.134 83.8a6.2 6.2 0 0 1 6.2 6.2v5.168a6.2 6.2 0 0 1-6.2 6.2 6.2 6.2 0 0 1-6.2-6.2V90a6.2 6.2 0 0 1 6.2-6.2z" class="cls-1" transform="translate(-366.933 -83.797)"/>
        </g>
        <path id="Path_366" d="M373.134 83.8a6.2 6.2 0 0 0-6.2 6.2v1.033h12.4V90a6.2 6.2 0 0 0-6.2-6.2z" class="cls-4" data-name="Path 366" transform="translate(-323.145 -82.764)"/>
        <path id="Path_367" d="M366.933 109.707h12.4v-1.033a6.2 6.2 0 0 0-1.178-3.628 34.688 34.688 0 0 1-11.224 3.834z" class="cls-5" data-name="Path 367" transform="translate(-323.145 -101.439)"/>
        <path id="Path_368" d="M127.517 267.131l-2.417 2.419a3.825 3.825 0 0 1 .362.155 11.573 11.573 0 0 0 10.335 0 11.514 11.514 0 0 1 10.335 0 11.573 11.573 0 0 0 10.335 0 11.544 11.544 0 0 1 5.6-1.2L156.084 263a127.406 127.406 0 0 1-28.567 4.131z" class="cls-6" data-name="Path 368" transform="translate(-110.343 -240.552)"/>
        <path id="Path_369" d="M61.357 322.919a11.282 11.282 0 0 1-5.113-1.22 11.343 11.343 0 0 0-10.226 0 11.343 11.343 0 0 1-10.226 0 11.343 11.343 0 0 0-10.226 0 11.343 11.343 0 0 1-10.226 0 11.343 11.343 0 0 0-10.226 0A11.284 11.284 0 0 1 0 322.919v-12.071a11.282 11.282 0 0 0 5.113-1.22 11.343 11.343 0 0 1 10.226 0 11.343 11.343 0 0 0 10.226 0 11.343 11.343 0 0 1 10.226 0 11.343 11.343 0 0 0 10.226 0 11.343 11.343 0 0 1 10.226 0 11.282 11.282 0 0 0 5.113 1.22v12.072z" class="cls-2" data-name="Path 369" transform="translate(0 -280.634)"/>
        <path id="Path_370" d="M420.2 143.531h2.067a2.066 2.066 0 0 1 2.067 2.067 2.066 2.066 0 0 1-2.067 2.067H420.2a2.067 2.067 0 0 1-2.067-2.067 2.067 2.067 0 0 1 2.067-2.067z" class="cls-7" data-name="Path 370" transform="translate(-368.144 -135.359)"/>
        <g id="Group_366" data-name="Group 366" transform="translate(0 26.748)">
            <path id="Path_371" d="M61.357 304.423a12.3 12.3 0 0 1-5.573-1.333 10.385 10.385 0 0 0-9.306 0 12.38 12.38 0 0 1-11.147 0 10.385 10.385 0 0 0-9.306 0 12.38 12.38 0 0 1-11.147 0 10.385 10.385 0 0 0-9.306 0A12.3 12.3 0 0 1 0 304.423v-2.067a10.376 10.376 0 0 0 4.653-1.106 12.38 12.38 0 0 1 11.147 0 10.385 10.385 0 0 0 9.306 0 12.38 12.38 0 0 1 11.147 0 10.385 10.385 0 0 0 9.306 0 12.38 12.38 0 0 1 11.147 0 10.376 10.376 0 0 0 4.653 1.106v2.067z" class="cls-8" data-name="Path 371" transform="translate(0 -299.925)"/>
            <path id="Path_372" d="M61.357 352.893a12.333 12.333 0 0 1-5.573-1.333 10.385 10.385 0 0 0-9.306 0 12.38 12.38 0 0 1-11.147 0 10.385 10.385 0 0 0-9.306 0 12.38 12.38 0 0 1-11.147 0 10.385 10.385 0 0 0-9.306 0A12.334 12.334 0 0 1 0 352.893v-2.067a10.376 10.376 0 0 0 4.653-1.106 12.38 12.38 0 0 1 11.147 0 10.385 10.385 0 0 0 9.306 0 12.38 12.38 0 0 1 11.147 0 10.385 10.385 0 0 0 9.306 0 12.38 12.38 0 0 1 11.147 0 10.376 10.376 0 0 0 4.653 1.106v2.067z" class="cls-8" data-name="Path 372" transform="translate(0 -342.524)"/>
            <path id="Path_373" d="M61.357 404.092a12.333 12.333 0 0 1-5.573-1.333 10.385 10.385 0 0 0-9.306 0 12.38 12.38 0 0 1-11.147 0 10.385 10.385 0 0 0-9.306 0 12.38 12.38 0 0 1-11.147 0 10.385 10.385 0 0 0-9.306 0A12.334 12.334 0 0 1 0 404.092v-2.067a10.376 10.376 0 0 0 4.653-1.106 12.38 12.38 0 0 1 11.147 0 10.385 10.385 0 0 0 9.306 0 12.38 12.38 0 0 1 11.147 0 10.385 10.385 0 0 0 9.306 0 12.38 12.38 0 0 1 11.147 0 10.376 10.376 0 0 0 4.653 1.106v2.067z" class="cls-8" data-name="Path 373" transform="translate(0 -387.523)"/>
        </g>
        <g id="Group_367" data-name="Group 367" transform="translate(43.788 7.146)">
            <path id="Rectangle_15" d="M0 0h12.402v2.067H0z" class="cls-9" data-name="Rectangle 15"/>
            <path id="Path_374" d="M414.768 141.2H412.7a3.1 3.1 0 1 1 0-6.2h2.067a3.1 3.1 0 1 1 0 6.2zm-2.067-4.134a1.033 1.033 0 0 0 0 2.067h2.067a1.033 1.033 0 0 0 0-2.067z" class="cls-9" data-name="Path 374" transform="translate(-404.432 -134.997)"/>
        </g>
        <path id="Path_375" d="M51.734 102.8l.092-.093-26.772-25.085a7.44 7.44 0 0 0-10.593.391 7.643 7.643 0 0 0-.87 1.149L5.41 92.473.389 96.452A1.041 1.041 0 0 0 .2 97.879l3.068 4.134a1.016 1.016 0 0 0 1.381.238l6.136-4.134a.709.709 0 0 0 .225-.207l8.49-10.48 5.645 5.695-10.4 10.511a12.379 12.379 0 0 0-10.093.455A10.376 10.376 0 0 1 0 105.2v2.067a12.3 12.3 0 0 0 5.573-1.333 10.385 10.385 0 0 1 9.306 0 12.38 12.38 0 0 0 11.147 0 10.385 10.385 0 0 1 9.306 0 12.38 12.38 0 0 0 11.147 0 10.385 10.385 0 0 1 9.306 0 12.3 12.3 0 0 0 5.573 1.333V105.2a10.376 10.376 0 0 1-4.658-1.11 12.239 12.239 0 0 0-4.966-1.29zm-6.134 1.29a10.385 10.385 0 0 1-9.306 0 12.38 12.38 0 0 0-11.147 0 10.318 10.318 0 0 1-8.334.413l10.542-10.645a1.041 1.041 0 0 0 .006-1.461l-.006-.006-7.155-7.235a1.014 1.014 0 0 0-1.446.007c-.023.024-.046.05-.067.075L9.531 96.484l-5.205 3.5-1.892-2.539 4.336-3.514a.926.926 0 0 0 .23-.259l8.324-13.436a5.406 5.406 0 0 1 8.334-1.116l25.422 23.833a12.36 12.36 0 0 0-3.528 1.137h.048z" data-name="Path 375" transform="translate(0 -75.555)"/>
        <path id="Path_376" d="M45.559 349.72a10.385 10.385 0 0 1-9.306 0 12.38 12.38 0 0 0-11.147 0 10.385 10.385 0 0 1-9.306 0 12.38 12.38 0 0 0-11.147 0A10.375 10.375 0 0 1 0 350.826v2.067a12.333 12.333 0 0 0 5.573-1.333 10.385 10.385 0 0 1 9.306 0 12.38 12.38 0 0 0 11.147 0 10.385 10.385 0 0 1 9.306 0 12.38 12.38 0 0 0 11.147 0 10.385 10.385 0 0 1 9.306 0 12.333 12.333 0 0 0 5.573 1.333v-2.067a10.375 10.375 0 0 1-4.653-1.106 12.38 12.38 0 0 0-11.146 0z" data-name="Path 376" transform="translate(-.001 -315.776)"/>
        <path id="Path_377" d="M45.559 400.921a10.385 10.385 0 0 1-9.306 0 12.38 12.38 0 0 0-11.147 0 10.385 10.385 0 0 1-9.306 0 12.38 12.38 0 0 0-11.147 0A10.376 10.376 0 0 1 0 402.026v2.067a12.333 12.333 0 0 0 5.573-1.333 10.385 10.385 0 0 1 9.306 0 12.38 12.38 0 0 0 11.147 0 10.385 10.385 0 0 1 9.306 0 12.38 12.38 0 0 0 11.147 0 10.385 10.385 0 0 1 9.306 0 12.333 12.333 0 0 0 5.573 1.333v-2.067a10.376 10.376 0 0 1-4.653-1.106 12.38 12.38 0 0 0-11.146.001z" data-name="Path 377" transform="translate(-.001 -360.775)"/>
        <path id="Path_378" d="M365.635 94.9a7.235 7.235 0 0 0 7.235-7.235V82.5a7.235 7.235 0 1 0-14.469 0v5.168a7.235 7.235 0 0 0 7.234 7.232zm2.065-10.334h2.067a1.033 1.033 0 0 1 0 2.067H367.7a1.033 1.033 0 0 1 0-2.067zm-2.067-7.235A5.168 5.168 0 0 1 370.8 82.5h-10.333a5.168 5.168 0 0 1 5.168-5.169zm-5.167 7.235h4.32A3.1 3.1 0 0 0 367.7 88.7h2.067a2.86 2.86 0 0 0 .94-.165 5.168 5.168 0 0 1-10.242-.868z" data-name="Path 378" transform="translate(-315.646 -75.264)"/>
    </g>
</svg>
